<mxfile host="app.diagrams.net" agent="Mozilla/5.0 (Windows NT 10.0; Win64; x64) AppleWebKit/537.36 (KHTML, like Gecko) Chrome/138.0.0.0 Safari/537.36 Edg/138.0.0.0" version="28.0.5">
  <diagram name="Page-1" id="mlALSfHTEJ7hedccqHrn">
    <mxGraphModel dx="6356" dy="2577" grid="1" gridSize="10" guides="1" tooltips="1" connect="1" arrows="1" fold="1" page="1" pageScale="1" pageWidth="2339" pageHeight="3300" math="0" shadow="0">
      <root>
        <mxCell id="0" />
        <mxCell id="1" parent="0" />
        <mxCell id="xvVvHs3m2Gexg3es9if6-3" value="" style="edgeStyle=orthogonalEdgeStyle;rounded=0;orthogonalLoop=1;jettySize=auto;html=1;" parent="1" source="xvVvHs3m2Gexg3es9if6-1" target="xvVvHs3m2Gexg3es9if6-2" edge="1">
          <mxGeometry relative="1" as="geometry" />
        </mxCell>
        <mxCell id="xvVvHs3m2Gexg3es9if6-1" value="stat" style="ellipse;whiteSpace=wrap;html=1;" parent="1" vertex="1">
          <mxGeometry x="906.25" y="10" width="105" height="40" as="geometry" />
        </mxCell>
        <mxCell id="xvVvHs3m2Gexg3es9if6-5" value="" style="edgeStyle=orthogonalEdgeStyle;rounded=0;orthogonalLoop=1;jettySize=auto;html=1;" parent="1" source="xvVvHs3m2Gexg3es9if6-2" target="xvVvHs3m2Gexg3es9if6-4" edge="1">
          <mxGeometry relative="1" as="geometry" />
        </mxCell>
        <mxCell id="xvVvHs3m2Gexg3es9if6-2" value="เงินในตู้" style="shape=parallelogram;perimeter=parallelogramPerimeter;whiteSpace=wrap;html=1;fixedSize=1;" parent="1" vertex="1">
          <mxGeometry x="910" y="70" width="97.5" height="30" as="geometry" />
        </mxCell>
        <mxCell id="xvVvHs3m2Gexg3es9if6-7" value="" style="edgeStyle=orthogonalEdgeStyle;rounded=0;orthogonalLoop=1;jettySize=auto;html=1;" parent="1" source="xvVvHs3m2Gexg3es9if6-4" target="xvVvHs3m2Gexg3es9if6-6" edge="1">
          <mxGeometry relative="1" as="geometry" />
        </mxCell>
        <mxCell id="xvVvHs3m2Gexg3es9if6-4" value="1000บาท=1ใบ" style="whiteSpace=wrap;html=1;" parent="1" vertex="1">
          <mxGeometry x="900" y="130" width="116.25" height="40" as="geometry" />
        </mxCell>
        <mxCell id="xvVvHs3m2Gexg3es9if6-9" value="" style="edgeStyle=orthogonalEdgeStyle;rounded=0;orthogonalLoop=1;jettySize=auto;html=1;" parent="1" source="xvVvHs3m2Gexg3es9if6-6" target="xvVvHs3m2Gexg3es9if6-8" edge="1">
          <mxGeometry relative="1" as="geometry" />
        </mxCell>
        <mxCell id="xvVvHs3m2Gexg3es9if6-6" value="500บาท=1ใบ" style="whiteSpace=wrap;html=1;" parent="1" vertex="1">
          <mxGeometry x="900.63" y="190" width="116.25" height="40" as="geometry" />
        </mxCell>
        <mxCell id="xvVvHs3m2Gexg3es9if6-11" value="" style="edgeStyle=orthogonalEdgeStyle;rounded=0;orthogonalLoop=1;jettySize=auto;html=1;" parent="1" source="xvVvHs3m2Gexg3es9if6-8" target="xvVvHs3m2Gexg3es9if6-10" edge="1">
          <mxGeometry relative="1" as="geometry" />
        </mxCell>
        <mxCell id="xvVvHs3m2Gexg3es9if6-8" value="100บาท=3ใบ" style="whiteSpace=wrap;html=1;" parent="1" vertex="1">
          <mxGeometry x="900.63" y="250" width="116.25" height="40" as="geometry" />
        </mxCell>
        <mxCell id="xvVvHs3m2Gexg3es9if6-13" value="" style="edgeStyle=orthogonalEdgeStyle;rounded=0;orthogonalLoop=1;jettySize=auto;html=1;" parent="1" source="xvVvHs3m2Gexg3es9if6-10" target="xvVvHs3m2Gexg3es9if6-12" edge="1">
          <mxGeometry relative="1" as="geometry" />
        </mxCell>
        <mxCell id="xvVvHs3m2Gexg3es9if6-10" value="50บาท=8ใบ" style="whiteSpace=wrap;html=1;" parent="1" vertex="1">
          <mxGeometry x="900.63" y="310" width="116.25" height="40" as="geometry" />
        </mxCell>
        <mxCell id="xvVvHs3m2Gexg3es9if6-15" value="" style="edgeStyle=orthogonalEdgeStyle;rounded=0;orthogonalLoop=1;jettySize=auto;html=1;" parent="1" source="xvVvHs3m2Gexg3es9if6-12" target="xvVvHs3m2Gexg3es9if6-14" edge="1">
          <mxGeometry relative="1" as="geometry" />
        </mxCell>
        <mxCell id="xvVvHs3m2Gexg3es9if6-12" value="20บาท=15ใบ" style="whiteSpace=wrap;html=1;" parent="1" vertex="1">
          <mxGeometry x="900.63" y="370" width="116.25" height="40" as="geometry" />
        </mxCell>
        <mxCell id="xvVvHs3m2Gexg3es9if6-17" value="" style="edgeStyle=orthogonalEdgeStyle;rounded=0;orthogonalLoop=1;jettySize=auto;html=1;" parent="1" source="xvVvHs3m2Gexg3es9if6-14" target="xvVvHs3m2Gexg3es9if6-16" edge="1">
          <mxGeometry relative="1" as="geometry" />
        </mxCell>
        <mxCell id="xvVvHs3m2Gexg3es9if6-14" value="10บาท=200เหรียญ" style="whiteSpace=wrap;html=1;" parent="1" vertex="1">
          <mxGeometry x="900.63" y="430" width="116.25" height="40" as="geometry" />
        </mxCell>
        <mxCell id="xvVvHs3m2Gexg3es9if6-19" value="" style="edgeStyle=orthogonalEdgeStyle;rounded=0;orthogonalLoop=1;jettySize=auto;html=1;" parent="1" source="xvVvHs3m2Gexg3es9if6-16" target="xvVvHs3m2Gexg3es9if6-18" edge="1">
          <mxGeometry relative="1" as="geometry" />
        </mxCell>
        <mxCell id="xvVvHs3m2Gexg3es9if6-16" value="5บาท=500เหรียญ" style="whiteSpace=wrap;html=1;" parent="1" vertex="1">
          <mxGeometry x="900.63" y="490" width="116.25" height="40" as="geometry" />
        </mxCell>
        <mxCell id="xvVvHs3m2Gexg3es9if6-21" value="" style="edgeStyle=orthogonalEdgeStyle;rounded=0;orthogonalLoop=1;jettySize=auto;html=1;" parent="1" source="xvVvHs3m2Gexg3es9if6-18" target="xvVvHs3m2Gexg3es9if6-20" edge="1">
          <mxGeometry relative="1" as="geometry" />
        </mxCell>
        <mxCell id="xvVvHs3m2Gexg3es9if6-18" value="1บาท=1000เหรียญ" style="whiteSpace=wrap;html=1;" parent="1" vertex="1">
          <mxGeometry x="900" y="550" width="116.25" height="40" as="geometry" />
        </mxCell>
        <mxCell id="xvVvHs3m2Gexg3es9if6-134" value="" style="edgeStyle=orthogonalEdgeStyle;rounded=0;orthogonalLoop=1;jettySize=auto;html=1;" parent="1" source="xvVvHs3m2Gexg3es9if6-20" target="xvVvHs3m2Gexg3es9if6-133" edge="1">
          <mxGeometry relative="1" as="geometry" />
        </mxCell>
        <mxCell id="xvVvHs3m2Gexg3es9if6-20" value="ข้อมูลสินค้า" style="shape=parallelogram;perimeter=parallelogramPerimeter;whiteSpace=wrap;html=1;fixedSize=1;" parent="1" vertex="1">
          <mxGeometry x="909.06" y="620" width="98.13" height="30" as="geometry" />
        </mxCell>
        <mxCell id="xvVvHs3m2Gexg3es9if6-195" value="" style="edgeStyle=orthogonalEdgeStyle;rounded=0;orthogonalLoop=1;jettySize=auto;html=1;" parent="1" source="xvVvHs3m2Gexg3es9if6-32" target="xvVvHs3m2Gexg3es9if6-194" edge="1">
          <mxGeometry relative="1" as="geometry" />
        </mxCell>
        <mxCell id="xvVvHs3m2Gexg3es9if6-821" style="edgeStyle=orthogonalEdgeStyle;rounded=0;orthogonalLoop=1;jettySize=auto;html=1;exitX=0;exitY=0.5;exitDx=0;exitDy=0;entryX=1;entryY=0.5;entryDx=0;entryDy=0;" parent="1" source="xvVvHs3m2Gexg3es9if6-32" target="xvVvHs3m2Gexg3es9if6-820" edge="1">
          <mxGeometry relative="1" as="geometry" />
        </mxCell>
        <mxCell id="xvVvHs3m2Gexg3es9if6-32" value="เลือกสินค้าประเภทน้ำ" style="rhombus;whiteSpace=wrap;html=1;" parent="1" vertex="1">
          <mxGeometry x="920.005" y="710" width="80" height="80" as="geometry" />
        </mxCell>
        <mxCell id="xvVvHs3m2Gexg3es9if6-185" value="" style="edgeStyle=orthogonalEdgeStyle;rounded=0;orthogonalLoop=1;jettySize=auto;html=1;" parent="1" edge="1">
          <mxGeometry relative="1" as="geometry">
            <mxPoint x="957.8199999999999" y="689.99" as="sourcePoint" />
            <mxPoint x="959.7133333333334" y="709.9983333333333" as="targetPoint" />
          </mxGeometry>
        </mxCell>
        <mxCell id="xvVvHs3m2Gexg3es9if6-133" value="" style="ellipse;whiteSpace=wrap;html=1;" parent="1" vertex="1">
          <mxGeometry x="945.52" y="670" width="25.2" height="20" as="geometry" />
        </mxCell>
        <mxCell id="xvVvHs3m2Gexg3es9if6-205" value="" style="edgeStyle=orthogonalEdgeStyle;rounded=0;orthogonalLoop=1;jettySize=auto;html=1;entryX=0.342;entryY=-0.043;entryDx=0;entryDy=0;entryPerimeter=0;" parent="1" source="xvVvHs3m2Gexg3es9if6-194" target="xvVvHs3m2Gexg3es9if6-228" edge="1">
          <mxGeometry relative="1" as="geometry">
            <mxPoint x="1480" y="820" as="targetPoint" />
          </mxGeometry>
        </mxCell>
        <mxCell id="xvVvHs3m2Gexg3es9if6-246" value="" style="edgeStyle=orthogonalEdgeStyle;rounded=0;orthogonalLoop=1;jettySize=auto;html=1;" parent="1" source="xvVvHs3m2Gexg3es9if6-194" target="xvVvHs3m2Gexg3es9if6-245" edge="1">
          <mxGeometry relative="1" as="geometry" />
        </mxCell>
        <mxCell id="xvVvHs3m2Gexg3es9if6-194" value="โค๊กขวดละ 10 บาท" style="rhombus;whiteSpace=wrap;html=1;" parent="1" vertex="1">
          <mxGeometry x="1170" y="710" width="120" height="80" as="geometry" />
        </mxCell>
        <mxCell id="xvVvHs3m2Gexg3es9if6-380" value="" style="edgeStyle=orthogonalEdgeStyle;rounded=0;orthogonalLoop=1;jettySize=auto;html=1;" parent="1" source="xvVvHs3m2Gexg3es9if6-202" target="xvVvHs3m2Gexg3es9if6-379" edge="1">
          <mxGeometry relative="1" as="geometry" />
        </mxCell>
        <mxCell id="xvVvHs3m2Gexg3es9if6-383" value="" style="edgeStyle=orthogonalEdgeStyle;rounded=0;orthogonalLoop=1;jettySize=auto;html=1;" parent="1" source="xvVvHs3m2Gexg3es9if6-202" target="xvVvHs3m2Gexg3es9if6-382" edge="1">
          <mxGeometry relative="1" as="geometry" />
        </mxCell>
        <mxCell id="xvVvHs3m2Gexg3es9if6-202" value="มีสินค้าหรือไม่" style="rhombus;whiteSpace=wrap;html=1;" parent="1" vertex="1">
          <mxGeometry x="1170" y="980" width="120" height="80" as="geometry" />
        </mxCell>
        <mxCell id="xvVvHs3m2Gexg3es9if6-215" value="" style="edgeStyle=orthogonalEdgeStyle;rounded=0;orthogonalLoop=1;jettySize=auto;html=1;" parent="1" source="xvVvHs3m2Gexg3es9if6-212" target="xvVvHs3m2Gexg3es9if6-214" edge="1">
          <mxGeometry relative="1" as="geometry" />
        </mxCell>
        <mxCell id="xvVvHs3m2Gexg3es9if6-212" value="เลือกจำนวนสินค้า" style="whiteSpace=wrap;html=1;" parent="1" vertex="1">
          <mxGeometry x="1044.87" y="1140" width="100" height="40" as="geometry" />
        </mxCell>
        <mxCell id="xvVvHs3m2Gexg3es9if6-217" value="" style="edgeStyle=orthogonalEdgeStyle;rounded=0;orthogonalLoop=1;jettySize=auto;html=1;" parent="1" source="xvVvHs3m2Gexg3es9if6-214" target="xvVvHs3m2Gexg3es9if6-216" edge="1">
          <mxGeometry relative="1" as="geometry" />
        </mxCell>
        <mxCell id="xvVvHs3m2Gexg3es9if6-214" value="จำนวนที่เลือก" style="shape=parallelogram;perimeter=parallelogramPerimeter;whiteSpace=wrap;html=1;fixedSize=1;" parent="1" vertex="1">
          <mxGeometry x="1038" y="1220" width="113.75" height="30" as="geometry" />
        </mxCell>
        <mxCell id="xvVvHs3m2Gexg3es9if6-225" value="" style="edgeStyle=orthogonalEdgeStyle;rounded=0;orthogonalLoop=1;jettySize=auto;html=1;" parent="1" source="xvVvHs3m2Gexg3es9if6-216" target="xvVvHs3m2Gexg3es9if6-224" edge="1">
          <mxGeometry relative="1" as="geometry" />
        </mxCell>
        <mxCell id="xvVvHs3m2Gexg3es9if6-256" value="" style="edgeStyle=orthogonalEdgeStyle;rounded=0;orthogonalLoop=1;jettySize=auto;html=1;" parent="1" source="xvVvHs3m2Gexg3es9if6-216" target="xvVvHs3m2Gexg3es9if6-255" edge="1">
          <mxGeometry relative="1" as="geometry" />
        </mxCell>
        <mxCell id="xvVvHs3m2Gexg3es9if6-216" value="จำนวนที่เลือก&amp;lt;=สินค้าคงเหลือ" style="rhombus;whiteSpace=wrap;html=1;" parent="1" vertex="1">
          <mxGeometry x="1033" y="1280" width="123.74" height="80" as="geometry" />
        </mxCell>
        <mxCell id="xvVvHs3m2Gexg3es9if6-254" value="" style="edgeStyle=orthogonalEdgeStyle;rounded=0;orthogonalLoop=1;jettySize=auto;html=1;" parent="1" source="xvVvHs3m2Gexg3es9if6-224" target="xvVvHs3m2Gexg3es9if6-253" edge="1">
          <mxGeometry relative="1" as="geometry" />
        </mxCell>
        <mxCell id="xvVvHs3m2Gexg3es9if6-224" value="คงเหลือไม่พอ" style="whiteSpace=wrap;html=1;" parent="1" vertex="1">
          <mxGeometry x="1192.5" y="1370" width="75.01" height="40" as="geometry" />
        </mxCell>
        <mxCell id="xvVvHs3m2Gexg3es9if6-288" style="edgeStyle=orthogonalEdgeStyle;rounded=0;orthogonalLoop=1;jettySize=auto;html=1;exitX=0.5;exitY=1;exitDx=0;exitDy=0;entryX=0.5;entryY=0;entryDx=0;entryDy=0;" parent="1" source="xvVvHs3m2Gexg3es9if6-227" target="xvVvHs3m2Gexg3es9if6-281" edge="1">
          <mxGeometry relative="1" as="geometry" />
        </mxCell>
        <mxCell id="xvVvHs3m2Gexg3es9if6-311" style="edgeStyle=orthogonalEdgeStyle;rounded=0;orthogonalLoop=1;jettySize=auto;html=1;exitX=1;exitY=0.5;exitDx=0;exitDy=0;" parent="1" source="xvVvHs3m2Gexg3es9if6-227" edge="1">
          <mxGeometry relative="1" as="geometry">
            <mxPoint x="2120" y="930" as="targetPoint" />
          </mxGeometry>
        </mxCell>
        <mxCell id="xvVvHs3m2Gexg3es9if6-227" value="น้ำเขียวขวดละ 12บาท" style="rhombus;whiteSpace=wrap;html=1;" parent="1" vertex="1">
          <mxGeometry x="1675.9899999999998" y="810" width="120" height="80" as="geometry" />
        </mxCell>
        <mxCell id="xvVvHs3m2Gexg3es9if6-266" style="edgeStyle=orthogonalEdgeStyle;rounded=0;orthogonalLoop=1;jettySize=auto;html=1;exitX=1;exitY=0.5;exitDx=0;exitDy=0;entryX=0;entryY=0.5;entryDx=0;entryDy=0;" parent="1" source="xvVvHs3m2Gexg3es9if6-228" target="xvVvHs3m2Gexg3es9if6-227" edge="1">
          <mxGeometry relative="1" as="geometry" />
        </mxCell>
        <mxCell id="xvVvHs3m2Gexg3es9if6-228" value="" style="ellipse;whiteSpace=wrap;html=1;" parent="1" vertex="1">
          <mxGeometry x="1470" y="840" width="25.2" height="20" as="geometry" />
        </mxCell>
        <mxCell id="xvVvHs3m2Gexg3es9if6-236" value="" style="ellipse;whiteSpace=wrap;html=1;" parent="1" vertex="1">
          <mxGeometry x="1086.12" y="1090" width="20" height="20" as="geometry" />
        </mxCell>
        <mxCell id="xvVvHs3m2Gexg3es9if6-240" value="" style="endArrow=classic;html=1;rounded=0;exitX=0.5;exitY=1;exitDx=0;exitDy=0;" parent="1" source="xvVvHs3m2Gexg3es9if6-236" edge="1">
          <mxGeometry width="50" height="50" relative="1" as="geometry">
            <mxPoint x="1094.87" y="1135" as="sourcePoint" />
            <mxPoint x="1096.12" y="1140" as="targetPoint" />
          </mxGeometry>
        </mxCell>
        <mxCell id="xvVvHs3m2Gexg3es9if6-248" style="edgeStyle=orthogonalEdgeStyle;rounded=0;orthogonalLoop=1;jettySize=auto;html=1;exitX=0.5;exitY=1;exitDx=0;exitDy=0;entryX=0.5;entryY=0;entryDx=0;entryDy=0;" parent="1" source="xvVvHs3m2Gexg3es9if6-243" target="xvVvHs3m2Gexg3es9if6-202" edge="1">
          <mxGeometry relative="1" as="geometry" />
        </mxCell>
        <mxCell id="xvVvHs3m2Gexg3es9if6-243" value="เลือกสินค้า" style="whiteSpace=wrap;html=1;" parent="1" vertex="1">
          <mxGeometry x="1170" y="880" width="120" height="60" as="geometry" />
        </mxCell>
        <mxCell id="xvVvHs3m2Gexg3es9if6-247" value="" style="edgeStyle=orthogonalEdgeStyle;rounded=0;orthogonalLoop=1;jettySize=auto;html=1;" parent="1" source="xvVvHs3m2Gexg3es9if6-245" target="xvVvHs3m2Gexg3es9if6-243" edge="1">
          <mxGeometry relative="1" as="geometry" />
        </mxCell>
        <mxCell id="xvVvHs3m2Gexg3es9if6-245" value="" style="ellipse;whiteSpace=wrap;html=1;" parent="1" vertex="1">
          <mxGeometry x="1215" y="830" width="30" height="20" as="geometry" />
        </mxCell>
        <mxCell id="xvVvHs3m2Gexg3es9if6-261" value="" style="edgeStyle=orthogonalEdgeStyle;rounded=0;orthogonalLoop=1;jettySize=auto;html=1;" parent="1" source="xvVvHs3m2Gexg3es9if6-253" target="xvVvHs3m2Gexg3es9if6-260" edge="1">
          <mxGeometry relative="1" as="geometry" />
        </mxCell>
        <mxCell id="xvVvHs3m2Gexg3es9if6-264" value="" style="edgeStyle=orthogonalEdgeStyle;rounded=0;orthogonalLoop=1;jettySize=auto;html=1;" parent="1" source="xvVvHs3m2Gexg3es9if6-253" target="xvVvHs3m2Gexg3es9if6-263" edge="1">
          <mxGeometry relative="1" as="geometry" />
        </mxCell>
        <mxCell id="xvVvHs3m2Gexg3es9if6-253" value="รับต่อมั้ย" style="rhombus;whiteSpace=wrap;html=1;" parent="1" vertex="1">
          <mxGeometry x="1190.01" y="1440" width="80" height="60" as="geometry" />
        </mxCell>
        <mxCell id="xvVvHs3m2Gexg3es9if6-428" style="edgeStyle=orthogonalEdgeStyle;rounded=0;orthogonalLoop=1;jettySize=auto;html=1;exitX=0.5;exitY=1;exitDx=0;exitDy=0;entryX=1;entryY=0.5;entryDx=0;entryDy=0;" parent="1" source="xvVvHs3m2Gexg3es9if6-255" target="xvVvHs3m2Gexg3es9if6-426" edge="1">
          <mxGeometry relative="1" as="geometry" />
        </mxCell>
        <mxCell id="xvVvHs3m2Gexg3es9if6-255" value="รับ" style="shape=parallelogram;perimeter=parallelogramPerimeter;whiteSpace=wrap;html=1;fixedSize=1;" parent="1" vertex="1">
          <mxGeometry x="1034.8700000000001" y="1440" width="120" height="40" as="geometry" />
        </mxCell>
        <mxCell id="xvVvHs3m2Gexg3es9if6-262" style="edgeStyle=orthogonalEdgeStyle;rounded=0;orthogonalLoop=1;jettySize=auto;html=1;exitX=0.5;exitY=0;exitDx=0;exitDy=0;entryX=1;entryY=0.5;entryDx=0;entryDy=0;" parent="1" source="xvVvHs3m2Gexg3es9if6-260" target="xvVvHs3m2Gexg3es9if6-236" edge="1">
          <mxGeometry relative="1" as="geometry" />
        </mxCell>
        <mxCell id="xvVvHs3m2Gexg3es9if6-260" value="รับ" style="whiteSpace=wrap;html=1;" parent="1" vertex="1">
          <mxGeometry x="1310" y="1455" width="79.99" height="30" as="geometry" />
        </mxCell>
        <mxCell id="xvVvHs3m2Gexg3es9if6-265" style="edgeStyle=orthogonalEdgeStyle;rounded=0;orthogonalLoop=1;jettySize=auto;html=1;exitX=1;exitY=0.5;exitDx=0;exitDy=0;entryX=0;entryY=0.5;entryDx=0;entryDy=0;" parent="1" source="xvVvHs3m2Gexg3es9if6-263" target="xvVvHs3m2Gexg3es9if6-228" edge="1">
          <mxGeometry relative="1" as="geometry">
            <Array as="points">
              <mxPoint x="1410" y="1550" />
              <mxPoint x="1410" y="850" />
            </Array>
          </mxGeometry>
        </mxCell>
        <mxCell id="xvVvHs3m2Gexg3es9if6-421" style="edgeStyle=orthogonalEdgeStyle;rounded=0;orthogonalLoop=1;jettySize=auto;html=1;exitX=0.5;exitY=1;exitDx=0;exitDy=0;entryX=1;entryY=0.5;entryDx=0;entryDy=0;" parent="1" source="xvVvHs3m2Gexg3es9if6-263" target="xvVvHs3m2Gexg3es9if6-133" edge="1">
          <mxGeometry relative="1" as="geometry">
            <Array as="points">
              <mxPoint x="1230" y="2080" />
              <mxPoint x="3370" y="2080" />
              <mxPoint x="3370" y="680" />
            </Array>
          </mxGeometry>
        </mxCell>
        <mxCell id="xvVvHs3m2Gexg3es9if6-263" value="ไม่รับ" style="whiteSpace=wrap;html=1;" parent="1" vertex="1">
          <mxGeometry x="1175" y="1530" width="109.99" height="40" as="geometry" />
        </mxCell>
        <mxCell id="xvVvHs3m2Gexg3es9if6-386" style="edgeStyle=orthogonalEdgeStyle;rounded=0;orthogonalLoop=1;jettySize=auto;html=1;exitX=1;exitY=0.5;exitDx=0;exitDy=0;entryX=0;entryY=0.5;entryDx=0;entryDy=0;" parent="1" source="xvVvHs3m2Gexg3es9if6-268" target="xvVvHs3m2Gexg3es9if6-385" edge="1">
          <mxGeometry relative="1" as="geometry" />
        </mxCell>
        <mxCell id="xvVvHs3m2Gexg3es9if6-389" style="edgeStyle=orthogonalEdgeStyle;rounded=0;orthogonalLoop=1;jettySize=auto;html=1;exitX=0;exitY=0.5;exitDx=0;exitDy=0;entryX=1;entryY=0.5;entryDx=0;entryDy=0;" parent="1" source="xvVvHs3m2Gexg3es9if6-268" target="xvVvHs3m2Gexg3es9if6-388" edge="1">
          <mxGeometry relative="1" as="geometry" />
        </mxCell>
        <mxCell id="xvVvHs3m2Gexg3es9if6-268" value="มีสินค้าหรือไม่" style="rhombus;whiteSpace=wrap;html=1;" parent="1" vertex="1">
          <mxGeometry x="1675.99" y="1040" width="120" height="80" as="geometry" />
        </mxCell>
        <mxCell id="xvVvHs3m2Gexg3es9if6-269" value="" style="edgeStyle=orthogonalEdgeStyle;rounded=0;orthogonalLoop=1;jettySize=auto;html=1;" parent="1" source="xvVvHs3m2Gexg3es9if6-270" target="xvVvHs3m2Gexg3es9if6-272" edge="1">
          <mxGeometry relative="1" as="geometry" />
        </mxCell>
        <mxCell id="xvVvHs3m2Gexg3es9if6-270" value="เลือกจำนวนสินค้า" style="whiteSpace=wrap;html=1;" parent="1" vertex="1">
          <mxGeometry x="1555.87" y="1200" width="100" height="40" as="geometry" />
        </mxCell>
        <mxCell id="xvVvHs3m2Gexg3es9if6-271" value="" style="edgeStyle=orthogonalEdgeStyle;rounded=0;orthogonalLoop=1;jettySize=auto;html=1;" parent="1" source="xvVvHs3m2Gexg3es9if6-272" target="xvVvHs3m2Gexg3es9if6-275" edge="1">
          <mxGeometry relative="1" as="geometry" />
        </mxCell>
        <mxCell id="xvVvHs3m2Gexg3es9if6-272" value="จำนวนที่เลือก" style="shape=parallelogram;perimeter=parallelogramPerimeter;whiteSpace=wrap;html=1;fixedSize=1;" parent="1" vertex="1">
          <mxGeometry x="1549" y="1280" width="113.75" height="30" as="geometry" />
        </mxCell>
        <mxCell id="xvVvHs3m2Gexg3es9if6-273" value="" style="edgeStyle=orthogonalEdgeStyle;rounded=0;orthogonalLoop=1;jettySize=auto;html=1;" parent="1" source="xvVvHs3m2Gexg3es9if6-275" target="xvVvHs3m2Gexg3es9if6-277" edge="1">
          <mxGeometry relative="1" as="geometry" />
        </mxCell>
        <mxCell id="xvVvHs3m2Gexg3es9if6-274" value="" style="edgeStyle=orthogonalEdgeStyle;rounded=0;orthogonalLoop=1;jettySize=auto;html=1;" parent="1" source="xvVvHs3m2Gexg3es9if6-275" edge="1">
          <mxGeometry relative="1" as="geometry">
            <mxPoint x="1470" y="1590" as="targetPoint" />
          </mxGeometry>
        </mxCell>
        <mxCell id="xvVvHs3m2Gexg3es9if6-275" value="จำนวนที่เลือก&amp;lt;=สินค้าคงเหลือ" style="rhombus;whiteSpace=wrap;html=1;" parent="1" vertex="1">
          <mxGeometry x="1544" y="1340" width="123.74" height="80" as="geometry" />
        </mxCell>
        <mxCell id="xvVvHs3m2Gexg3es9if6-276" value="" style="edgeStyle=orthogonalEdgeStyle;rounded=0;orthogonalLoop=1;jettySize=auto;html=1;" parent="1" source="xvVvHs3m2Gexg3es9if6-277" target="xvVvHs3m2Gexg3es9if6-284" edge="1">
          <mxGeometry relative="1" as="geometry" />
        </mxCell>
        <mxCell id="xvVvHs3m2Gexg3es9if6-277" value="คงเหลือไม่พอ" style="whiteSpace=wrap;html=1;" parent="1" vertex="1">
          <mxGeometry x="1703.5" y="1430" width="75.01" height="40" as="geometry" />
        </mxCell>
        <mxCell id="xvVvHs3m2Gexg3es9if6-278" value="" style="ellipse;whiteSpace=wrap;html=1;" parent="1" vertex="1">
          <mxGeometry x="1597.12" y="1150" width="20" height="20" as="geometry" />
        </mxCell>
        <mxCell id="xvVvHs3m2Gexg3es9if6-279" value="" style="endArrow=classic;html=1;rounded=0;exitX=0.5;exitY=1;exitDx=0;exitDy=0;" parent="1" source="xvVvHs3m2Gexg3es9if6-278" edge="1">
          <mxGeometry width="50" height="50" relative="1" as="geometry">
            <mxPoint x="1605.87" y="1195" as="sourcePoint" />
            <mxPoint x="1607.12" y="1200" as="targetPoint" />
          </mxGeometry>
        </mxCell>
        <mxCell id="xvVvHs3m2Gexg3es9if6-280" style="edgeStyle=orthogonalEdgeStyle;rounded=0;orthogonalLoop=1;jettySize=auto;html=1;exitX=0.5;exitY=1;exitDx=0;exitDy=0;entryX=0.5;entryY=0;entryDx=0;entryDy=0;" parent="1" source="xvVvHs3m2Gexg3es9if6-281" target="xvVvHs3m2Gexg3es9if6-268" edge="1">
          <mxGeometry relative="1" as="geometry" />
        </mxCell>
        <mxCell id="xvVvHs3m2Gexg3es9if6-281" value="เลือกสินค้า" style="whiteSpace=wrap;html=1;" parent="1" vertex="1">
          <mxGeometry x="1675.99" y="940" width="120" height="60" as="geometry" />
        </mxCell>
        <mxCell id="xvVvHs3m2Gexg3es9if6-282" value="" style="edgeStyle=orthogonalEdgeStyle;rounded=0;orthogonalLoop=1;jettySize=auto;html=1;" parent="1" source="xvVvHs3m2Gexg3es9if6-284" target="xvVvHs3m2Gexg3es9if6-286" edge="1">
          <mxGeometry relative="1" as="geometry" />
        </mxCell>
        <mxCell id="xvVvHs3m2Gexg3es9if6-283" value="" style="edgeStyle=orthogonalEdgeStyle;rounded=0;orthogonalLoop=1;jettySize=auto;html=1;" parent="1" source="xvVvHs3m2Gexg3es9if6-284" target="xvVvHs3m2Gexg3es9if6-287" edge="1">
          <mxGeometry relative="1" as="geometry" />
        </mxCell>
        <mxCell id="xvVvHs3m2Gexg3es9if6-284" value="รับต่อมั้ย" style="rhombus;whiteSpace=wrap;html=1;" parent="1" vertex="1">
          <mxGeometry x="1701.0100000000002" y="1500" width="80" height="60" as="geometry" />
        </mxCell>
        <mxCell id="xvVvHs3m2Gexg3es9if6-285" style="edgeStyle=orthogonalEdgeStyle;rounded=0;orthogonalLoop=1;jettySize=auto;html=1;exitX=0.5;exitY=0;exitDx=0;exitDy=0;entryX=1;entryY=0.5;entryDx=0;entryDy=0;" parent="1" source="xvVvHs3m2Gexg3es9if6-286" target="xvVvHs3m2Gexg3es9if6-278" edge="1">
          <mxGeometry relative="1" as="geometry" />
        </mxCell>
        <mxCell id="xvVvHs3m2Gexg3es9if6-286" value="รับ" style="whiteSpace=wrap;html=1;" parent="1" vertex="1">
          <mxGeometry x="1821" y="1515" width="79.99" height="30" as="geometry" />
        </mxCell>
        <mxCell id="xvVvHs3m2Gexg3es9if6-315" style="edgeStyle=orthogonalEdgeStyle;rounded=0;orthogonalLoop=1;jettySize=auto;html=1;exitX=1;exitY=0.5;exitDx=0;exitDy=0;entryX=0;entryY=0.5;entryDx=0;entryDy=0;" parent="1" source="xvVvHs3m2Gexg3es9if6-287" target="xvVvHs3m2Gexg3es9if6-313" edge="1">
          <mxGeometry relative="1" as="geometry" />
        </mxCell>
        <mxCell id="xvVvHs3m2Gexg3es9if6-420" style="edgeStyle=orthogonalEdgeStyle;rounded=0;orthogonalLoop=1;jettySize=auto;html=1;exitX=0.5;exitY=1;exitDx=0;exitDy=0;entryX=1;entryY=0.5;entryDx=0;entryDy=0;" parent="1" source="xvVvHs3m2Gexg3es9if6-287" target="xvVvHs3m2Gexg3es9if6-133" edge="1">
          <mxGeometry relative="1" as="geometry">
            <Array as="points">
              <mxPoint x="1741" y="2080" />
              <mxPoint x="3370" y="2080" />
              <mxPoint x="3370" y="680" />
            </Array>
          </mxGeometry>
        </mxCell>
        <mxCell id="xvVvHs3m2Gexg3es9if6-287" value="ไม่รับ" style="whiteSpace=wrap;html=1;" parent="1" vertex="1">
          <mxGeometry x="1686" y="1590" width="109.99" height="40" as="geometry" />
        </mxCell>
        <mxCell id="xvVvHs3m2Gexg3es9if6-429" style="edgeStyle=orthogonalEdgeStyle;rounded=0;orthogonalLoop=1;jettySize=auto;html=1;exitX=0.5;exitY=1;exitDx=0;exitDy=0;entryX=1;entryY=0.5;entryDx=0;entryDy=0;" parent="1" source="xvVvHs3m2Gexg3es9if6-310" target="xvVvHs3m2Gexg3es9if6-426" edge="1">
          <mxGeometry relative="1" as="geometry" />
        </mxCell>
        <mxCell id="xvVvHs3m2Gexg3es9if6-310" value="รับ" style="shape=parallelogram;perimeter=parallelogramPerimeter;whiteSpace=wrap;html=1;fixedSize=1;" parent="1" vertex="1">
          <mxGeometry x="1410" y="1590" width="120" height="40" as="geometry" />
        </mxCell>
        <mxCell id="xvVvHs3m2Gexg3es9if6-340" style="edgeStyle=orthogonalEdgeStyle;rounded=0;orthogonalLoop=1;jettySize=auto;html=1;exitX=0.5;exitY=1;exitDx=0;exitDy=0;" parent="1" source="xvVvHs3m2Gexg3es9if6-312" target="xvVvHs3m2Gexg3es9if6-331" edge="1">
          <mxGeometry relative="1" as="geometry" />
        </mxCell>
        <mxCell id="xvVvHs3m2Gexg3es9if6-373" style="edgeStyle=orthogonalEdgeStyle;rounded=0;orthogonalLoop=1;jettySize=auto;html=1;exitX=1;exitY=0.5;exitDx=0;exitDy=0;entryX=0.5;entryY=0;entryDx=0;entryDy=0;" parent="1" source="xvVvHs3m2Gexg3es9if6-312" target="xvVvHs3m2Gexg3es9if6-372" edge="1">
          <mxGeometry relative="1" as="geometry" />
        </mxCell>
        <mxCell id="xvVvHs3m2Gexg3es9if6-312" value="อเมริกาโน่ขวดละ30บาท" style="rhombus;whiteSpace=wrap;html=1;" parent="1" vertex="1">
          <mxGeometry x="2206" y="980" width="120" height="80" as="geometry" />
        </mxCell>
        <mxCell id="xvVvHs3m2Gexg3es9if6-339" style="edgeStyle=orthogonalEdgeStyle;rounded=0;orthogonalLoop=1;jettySize=auto;html=1;exitX=1;exitY=0.5;exitDx=0;exitDy=0;entryX=0.5;entryY=0;entryDx=0;entryDy=0;" parent="1" source="xvVvHs3m2Gexg3es9if6-313" target="xvVvHs3m2Gexg3es9if6-312" edge="1">
          <mxGeometry relative="1" as="geometry" />
        </mxCell>
        <mxCell id="xvVvHs3m2Gexg3es9if6-313" value="" style="ellipse;whiteSpace=wrap;html=1;" parent="1" vertex="1">
          <mxGeometry x="2107.4" y="930" width="25.2" height="20" as="geometry" />
        </mxCell>
        <mxCell id="xvVvHs3m2Gexg3es9if6-394" style="edgeStyle=orthogonalEdgeStyle;rounded=0;orthogonalLoop=1;jettySize=auto;html=1;exitX=1;exitY=0.5;exitDx=0;exitDy=0;entryX=0;entryY=0.5;entryDx=0;entryDy=0;" parent="1" source="xvVvHs3m2Gexg3es9if6-318" target="xvVvHs3m2Gexg3es9if6-392" edge="1">
          <mxGeometry relative="1" as="geometry" />
        </mxCell>
        <mxCell id="xvVvHs3m2Gexg3es9if6-397" style="edgeStyle=orthogonalEdgeStyle;rounded=0;orthogonalLoop=1;jettySize=auto;html=1;exitX=0;exitY=0.5;exitDx=0;exitDy=0;entryX=1;entryY=0.5;entryDx=0;entryDy=0;" parent="1" source="xvVvHs3m2Gexg3es9if6-318" target="xvVvHs3m2Gexg3es9if6-396" edge="1">
          <mxGeometry relative="1" as="geometry" />
        </mxCell>
        <mxCell id="xvVvHs3m2Gexg3es9if6-318" value="มีสินค้าหรือไม่" style="rhombus;whiteSpace=wrap;html=1;" parent="1" vertex="1">
          <mxGeometry x="2205.99" y="1205" width="120" height="80" as="geometry" />
        </mxCell>
        <mxCell id="xvVvHs3m2Gexg3es9if6-319" value="" style="edgeStyle=orthogonalEdgeStyle;rounded=0;orthogonalLoop=1;jettySize=auto;html=1;" parent="1" source="xvVvHs3m2Gexg3es9if6-320" target="xvVvHs3m2Gexg3es9if6-322" edge="1">
          <mxGeometry relative="1" as="geometry" />
        </mxCell>
        <mxCell id="xvVvHs3m2Gexg3es9if6-320" value="เลือกจำนวนสินค้า" style="whiteSpace=wrap;html=1;" parent="1" vertex="1">
          <mxGeometry x="2085.87" y="1365" width="100" height="40" as="geometry" />
        </mxCell>
        <mxCell id="xvVvHs3m2Gexg3es9if6-321" value="" style="edgeStyle=orthogonalEdgeStyle;rounded=0;orthogonalLoop=1;jettySize=auto;html=1;" parent="1" source="xvVvHs3m2Gexg3es9if6-322" target="xvVvHs3m2Gexg3es9if6-325" edge="1">
          <mxGeometry relative="1" as="geometry" />
        </mxCell>
        <mxCell id="xvVvHs3m2Gexg3es9if6-322" value="จำนวนที่เลือก" style="shape=parallelogram;perimeter=parallelogramPerimeter;whiteSpace=wrap;html=1;fixedSize=1;" parent="1" vertex="1">
          <mxGeometry x="2079" y="1445" width="113.75" height="30" as="geometry" />
        </mxCell>
        <mxCell id="xvVvHs3m2Gexg3es9if6-323" value="" style="edgeStyle=orthogonalEdgeStyle;rounded=0;orthogonalLoop=1;jettySize=auto;html=1;" parent="1" source="xvVvHs3m2Gexg3es9if6-325" target="xvVvHs3m2Gexg3es9if6-327" edge="1">
          <mxGeometry relative="1" as="geometry" />
        </mxCell>
        <mxCell id="xvVvHs3m2Gexg3es9if6-324" value="" style="edgeStyle=orthogonalEdgeStyle;rounded=0;orthogonalLoop=1;jettySize=auto;html=1;" parent="1" source="xvVvHs3m2Gexg3es9if6-325" edge="1">
          <mxGeometry relative="1" as="geometry">
            <mxPoint x="2000" y="1755" as="targetPoint" />
          </mxGeometry>
        </mxCell>
        <mxCell id="xvVvHs3m2Gexg3es9if6-325" value="จำนวนที่เลือก&amp;lt;=สินค้าคงเหลือ" style="rhombus;whiteSpace=wrap;html=1;" parent="1" vertex="1">
          <mxGeometry x="2074" y="1505" width="123.74" height="80" as="geometry" />
        </mxCell>
        <mxCell id="xvVvHs3m2Gexg3es9if6-326" value="" style="edgeStyle=orthogonalEdgeStyle;rounded=0;orthogonalLoop=1;jettySize=auto;html=1;" parent="1" source="xvVvHs3m2Gexg3es9if6-327" target="xvVvHs3m2Gexg3es9if6-334" edge="1">
          <mxGeometry relative="1" as="geometry" />
        </mxCell>
        <mxCell id="xvVvHs3m2Gexg3es9if6-327" value="คงเหลือไม่พอ" style="whiteSpace=wrap;html=1;" parent="1" vertex="1">
          <mxGeometry x="2233.5" y="1595" width="75.01" height="40" as="geometry" />
        </mxCell>
        <mxCell id="xvVvHs3m2Gexg3es9if6-328" value="" style="ellipse;whiteSpace=wrap;html=1;" parent="1" vertex="1">
          <mxGeometry x="2127.12" y="1315" width="20" height="20" as="geometry" />
        </mxCell>
        <mxCell id="xvVvHs3m2Gexg3es9if6-329" value="" style="endArrow=classic;html=1;rounded=0;exitX=0.5;exitY=1;exitDx=0;exitDy=0;" parent="1" source="xvVvHs3m2Gexg3es9if6-328" edge="1">
          <mxGeometry width="50" height="50" relative="1" as="geometry">
            <mxPoint x="2135.87" y="1360" as="sourcePoint" />
            <mxPoint x="2137.12" y="1365" as="targetPoint" />
          </mxGeometry>
        </mxCell>
        <mxCell id="xvVvHs3m2Gexg3es9if6-330" style="edgeStyle=orthogonalEdgeStyle;rounded=0;orthogonalLoop=1;jettySize=auto;html=1;exitX=0.5;exitY=1;exitDx=0;exitDy=0;entryX=0.5;entryY=0;entryDx=0;entryDy=0;" parent="1" source="xvVvHs3m2Gexg3es9if6-331" target="xvVvHs3m2Gexg3es9if6-318" edge="1">
          <mxGeometry relative="1" as="geometry" />
        </mxCell>
        <mxCell id="xvVvHs3m2Gexg3es9if6-331" value="เลือกสินค้า" style="whiteSpace=wrap;html=1;" parent="1" vertex="1">
          <mxGeometry x="2205.99" y="1105" width="120" height="60" as="geometry" />
        </mxCell>
        <mxCell id="xvVvHs3m2Gexg3es9if6-332" value="" style="edgeStyle=orthogonalEdgeStyle;rounded=0;orthogonalLoop=1;jettySize=auto;html=1;" parent="1" source="xvVvHs3m2Gexg3es9if6-334" target="xvVvHs3m2Gexg3es9if6-336" edge="1">
          <mxGeometry relative="1" as="geometry" />
        </mxCell>
        <mxCell id="xvVvHs3m2Gexg3es9if6-333" value="" style="edgeStyle=orthogonalEdgeStyle;rounded=0;orthogonalLoop=1;jettySize=auto;html=1;" parent="1" source="xvVvHs3m2Gexg3es9if6-334" target="xvVvHs3m2Gexg3es9if6-337" edge="1">
          <mxGeometry relative="1" as="geometry" />
        </mxCell>
        <mxCell id="xvVvHs3m2Gexg3es9if6-334" value="รับต่อมั้ย" style="rhombus;whiteSpace=wrap;html=1;" parent="1" vertex="1">
          <mxGeometry x="2231.01" y="1665" width="80" height="60" as="geometry" />
        </mxCell>
        <mxCell id="xvVvHs3m2Gexg3es9if6-335" style="edgeStyle=orthogonalEdgeStyle;rounded=0;orthogonalLoop=1;jettySize=auto;html=1;exitX=0.5;exitY=0;exitDx=0;exitDy=0;entryX=1;entryY=0.5;entryDx=0;entryDy=0;" parent="1" source="xvVvHs3m2Gexg3es9if6-336" target="xvVvHs3m2Gexg3es9if6-328" edge="1">
          <mxGeometry relative="1" as="geometry" />
        </mxCell>
        <mxCell id="xvVvHs3m2Gexg3es9if6-336" value="รับ" style="whiteSpace=wrap;html=1;" parent="1" vertex="1">
          <mxGeometry x="2351" y="1680" width="79.99" height="30" as="geometry" />
        </mxCell>
        <mxCell id="xvVvHs3m2Gexg3es9if6-376" style="edgeStyle=orthogonalEdgeStyle;rounded=0;orthogonalLoop=1;jettySize=auto;html=1;exitX=1;exitY=0.5;exitDx=0;exitDy=0;entryX=0;entryY=0.5;entryDx=0;entryDy=0;" parent="1" source="xvVvHs3m2Gexg3es9if6-337" target="xvVvHs3m2Gexg3es9if6-372" edge="1">
          <mxGeometry relative="1" as="geometry">
            <Array as="points">
              <mxPoint x="2510" y="1775" />
              <mxPoint x="2510" y="1110" />
            </Array>
          </mxGeometry>
        </mxCell>
        <mxCell id="xvVvHs3m2Gexg3es9if6-419" style="edgeStyle=orthogonalEdgeStyle;rounded=0;orthogonalLoop=1;jettySize=auto;html=1;exitX=0.5;exitY=1;exitDx=0;exitDy=0;entryX=1;entryY=0.5;entryDx=0;entryDy=0;" parent="1" source="xvVvHs3m2Gexg3es9if6-337" target="xvVvHs3m2Gexg3es9if6-133" edge="1">
          <mxGeometry relative="1" as="geometry">
            <Array as="points">
              <mxPoint x="2271" y="2080" />
              <mxPoint x="3370" y="2080" />
              <mxPoint x="3370" y="680" />
            </Array>
          </mxGeometry>
        </mxCell>
        <mxCell id="xvVvHs3m2Gexg3es9if6-337" value="ไม่รับ" style="whiteSpace=wrap;html=1;" parent="1" vertex="1">
          <mxGeometry x="2216" y="1755" width="109.99" height="40" as="geometry" />
        </mxCell>
        <mxCell id="xvVvHs3m2Gexg3es9if6-430" style="edgeStyle=orthogonalEdgeStyle;rounded=0;orthogonalLoop=1;jettySize=auto;html=1;exitX=0.5;exitY=1;exitDx=0;exitDy=0;entryX=1;entryY=0.5;entryDx=0;entryDy=0;" parent="1" source="xvVvHs3m2Gexg3es9if6-338" target="xvVvHs3m2Gexg3es9if6-426" edge="1">
          <mxGeometry relative="1" as="geometry" />
        </mxCell>
        <mxCell id="xvVvHs3m2Gexg3es9if6-338" value="รับ" style="shape=parallelogram;perimeter=parallelogramPerimeter;whiteSpace=wrap;html=1;fixedSize=1;" parent="1" vertex="1">
          <mxGeometry x="1940" y="1755" width="120" height="40" as="geometry" />
        </mxCell>
        <mxCell id="xvVvHs3m2Gexg3es9if6-342" style="edgeStyle=orthogonalEdgeStyle;rounded=0;orthogonalLoop=1;jettySize=auto;html=1;exitX=0.5;exitY=1;exitDx=0;exitDy=0;" parent="1" source="xvVvHs3m2Gexg3es9if6-343" target="xvVvHs3m2Gexg3es9if6-360" edge="1">
          <mxGeometry relative="1" as="geometry" />
        </mxCell>
        <mxCell id="xvVvHs3m2Gexg3es9if6-343" value="ลาเต้หวานเจี๊ยบขวดละ35บาท" style="rhombus;whiteSpace=wrap;html=1;" parent="1" vertex="1">
          <mxGeometry x="2826" y="1165" width="120" height="80" as="geometry" />
        </mxCell>
        <mxCell id="xvVvHs3m2Gexg3es9if6-399" style="edgeStyle=orthogonalEdgeStyle;rounded=0;orthogonalLoop=1;jettySize=auto;html=1;exitX=1;exitY=0.5;exitDx=0;exitDy=0;" parent="1" source="xvVvHs3m2Gexg3es9if6-347" edge="1">
          <mxGeometry relative="1" as="geometry">
            <mxPoint x="3160" y="1550" as="targetPoint" />
          </mxGeometry>
        </mxCell>
        <mxCell id="xvVvHs3m2Gexg3es9if6-402" style="edgeStyle=orthogonalEdgeStyle;rounded=0;orthogonalLoop=1;jettySize=auto;html=1;exitX=0;exitY=0.5;exitDx=0;exitDy=0;entryX=1;entryY=0.5;entryDx=0;entryDy=0;" parent="1" source="xvVvHs3m2Gexg3es9if6-347" target="xvVvHs3m2Gexg3es9if6-401" edge="1">
          <mxGeometry relative="1" as="geometry" />
        </mxCell>
        <mxCell id="xvVvHs3m2Gexg3es9if6-347" value="มีสินค้าหรือไม่" style="rhombus;whiteSpace=wrap;html=1;" parent="1" vertex="1">
          <mxGeometry x="2825.99" y="1390" width="120" height="80" as="geometry" />
        </mxCell>
        <mxCell id="xvVvHs3m2Gexg3es9if6-348" value="" style="edgeStyle=orthogonalEdgeStyle;rounded=0;orthogonalLoop=1;jettySize=auto;html=1;" parent="1" source="xvVvHs3m2Gexg3es9if6-349" target="xvVvHs3m2Gexg3es9if6-351" edge="1">
          <mxGeometry relative="1" as="geometry" />
        </mxCell>
        <mxCell id="xvVvHs3m2Gexg3es9if6-349" value="เลือกจำนวนสินค้า" style="whiteSpace=wrap;html=1;" parent="1" vertex="1">
          <mxGeometry x="2705.87" y="1550" width="100" height="40" as="geometry" />
        </mxCell>
        <mxCell id="xvVvHs3m2Gexg3es9if6-350" value="" style="edgeStyle=orthogonalEdgeStyle;rounded=0;orthogonalLoop=1;jettySize=auto;html=1;" parent="1" source="xvVvHs3m2Gexg3es9if6-351" target="xvVvHs3m2Gexg3es9if6-354" edge="1">
          <mxGeometry relative="1" as="geometry" />
        </mxCell>
        <mxCell id="xvVvHs3m2Gexg3es9if6-351" value="จำนวนที่เลือก" style="shape=parallelogram;perimeter=parallelogramPerimeter;whiteSpace=wrap;html=1;fixedSize=1;" parent="1" vertex="1">
          <mxGeometry x="2699" y="1630" width="113.75" height="30" as="geometry" />
        </mxCell>
        <mxCell id="xvVvHs3m2Gexg3es9if6-352" value="" style="edgeStyle=orthogonalEdgeStyle;rounded=0;orthogonalLoop=1;jettySize=auto;html=1;" parent="1" source="xvVvHs3m2Gexg3es9if6-354" target="xvVvHs3m2Gexg3es9if6-356" edge="1">
          <mxGeometry relative="1" as="geometry" />
        </mxCell>
        <mxCell id="xvVvHs3m2Gexg3es9if6-353" value="" style="edgeStyle=orthogonalEdgeStyle;rounded=0;orthogonalLoop=1;jettySize=auto;html=1;" parent="1" source="xvVvHs3m2Gexg3es9if6-354" edge="1">
          <mxGeometry relative="1" as="geometry">
            <mxPoint x="2620" y="1940" as="targetPoint" />
          </mxGeometry>
        </mxCell>
        <mxCell id="xvVvHs3m2Gexg3es9if6-354" value="จำนวนที่เลือก&amp;lt;=สินค้าคงเหลือ" style="rhombus;whiteSpace=wrap;html=1;" parent="1" vertex="1">
          <mxGeometry x="2694" y="1690" width="123.74" height="80" as="geometry" />
        </mxCell>
        <mxCell id="xvVvHs3m2Gexg3es9if6-355" value="" style="edgeStyle=orthogonalEdgeStyle;rounded=0;orthogonalLoop=1;jettySize=auto;html=1;" parent="1" source="xvVvHs3m2Gexg3es9if6-356" target="xvVvHs3m2Gexg3es9if6-363" edge="1">
          <mxGeometry relative="1" as="geometry" />
        </mxCell>
        <mxCell id="xvVvHs3m2Gexg3es9if6-356" value="คงเหลือไม่พอ" style="whiteSpace=wrap;html=1;" parent="1" vertex="1">
          <mxGeometry x="2853.5" y="1780" width="75.01" height="40" as="geometry" />
        </mxCell>
        <mxCell id="xvVvHs3m2Gexg3es9if6-357" value="" style="ellipse;whiteSpace=wrap;html=1;" parent="1" vertex="1">
          <mxGeometry x="2747.12" y="1500" width="20" height="20" as="geometry" />
        </mxCell>
        <mxCell id="xvVvHs3m2Gexg3es9if6-358" value="" style="endArrow=classic;html=1;rounded=0;exitX=0.5;exitY=1;exitDx=0;exitDy=0;" parent="1" source="xvVvHs3m2Gexg3es9if6-357" edge="1">
          <mxGeometry width="50" height="50" relative="1" as="geometry">
            <mxPoint x="2755.87" y="1545" as="sourcePoint" />
            <mxPoint x="2757.12" y="1550" as="targetPoint" />
          </mxGeometry>
        </mxCell>
        <mxCell id="xvVvHs3m2Gexg3es9if6-359" style="edgeStyle=orthogonalEdgeStyle;rounded=0;orthogonalLoop=1;jettySize=auto;html=1;exitX=0.5;exitY=1;exitDx=0;exitDy=0;entryX=0.5;entryY=0;entryDx=0;entryDy=0;" parent="1" source="xvVvHs3m2Gexg3es9if6-360" target="xvVvHs3m2Gexg3es9if6-347" edge="1">
          <mxGeometry relative="1" as="geometry" />
        </mxCell>
        <mxCell id="xvVvHs3m2Gexg3es9if6-360" value="เลือกสินค้า" style="whiteSpace=wrap;html=1;" parent="1" vertex="1">
          <mxGeometry x="2825.99" y="1290" width="120" height="60" as="geometry" />
        </mxCell>
        <mxCell id="xvVvHs3m2Gexg3es9if6-361" value="" style="edgeStyle=orthogonalEdgeStyle;rounded=0;orthogonalLoop=1;jettySize=auto;html=1;" parent="1" source="xvVvHs3m2Gexg3es9if6-363" target="xvVvHs3m2Gexg3es9if6-365" edge="1">
          <mxGeometry relative="1" as="geometry" />
        </mxCell>
        <mxCell id="xvVvHs3m2Gexg3es9if6-362" value="" style="edgeStyle=orthogonalEdgeStyle;rounded=0;orthogonalLoop=1;jettySize=auto;html=1;" parent="1" source="xvVvHs3m2Gexg3es9if6-363" target="xvVvHs3m2Gexg3es9if6-366" edge="1">
          <mxGeometry relative="1" as="geometry" />
        </mxCell>
        <mxCell id="xvVvHs3m2Gexg3es9if6-363" value="รับต่อมั้ย" style="rhombus;whiteSpace=wrap;html=1;" parent="1" vertex="1">
          <mxGeometry x="2851.01" y="1850" width="80" height="60" as="geometry" />
        </mxCell>
        <mxCell id="xvVvHs3m2Gexg3es9if6-364" style="edgeStyle=orthogonalEdgeStyle;rounded=0;orthogonalLoop=1;jettySize=auto;html=1;exitX=0.5;exitY=0;exitDx=0;exitDy=0;entryX=1;entryY=0.5;entryDx=0;entryDy=0;" parent="1" source="xvVvHs3m2Gexg3es9if6-365" target="xvVvHs3m2Gexg3es9if6-357" edge="1">
          <mxGeometry relative="1" as="geometry" />
        </mxCell>
        <mxCell id="xvVvHs3m2Gexg3es9if6-365" value="รับ" style="whiteSpace=wrap;html=1;" parent="1" vertex="1">
          <mxGeometry x="2971" y="1865" width="79.99" height="30" as="geometry" />
        </mxCell>
        <mxCell id="xvVvHs3m2Gexg3es9if6-418" style="edgeStyle=orthogonalEdgeStyle;rounded=0;orthogonalLoop=1;jettySize=auto;html=1;exitX=0.5;exitY=1;exitDx=0;exitDy=0;entryX=1;entryY=0.5;entryDx=0;entryDy=0;" parent="1" source="xvVvHs3m2Gexg3es9if6-366" target="xvVvHs3m2Gexg3es9if6-133" edge="1">
          <mxGeometry relative="1" as="geometry">
            <Array as="points">
              <mxPoint x="2891" y="2080" />
              <mxPoint x="3370" y="2080" />
              <mxPoint x="3370" y="680" />
            </Array>
          </mxGeometry>
        </mxCell>
        <mxCell id="xvVvHs3m2Gexg3es9if6-366" value="ไม่รับ" style="whiteSpace=wrap;html=1;" parent="1" vertex="1">
          <mxGeometry x="2836" y="1940" width="109.99" height="40" as="geometry" />
        </mxCell>
        <mxCell id="xvVvHs3m2Gexg3es9if6-431" style="edgeStyle=orthogonalEdgeStyle;rounded=0;orthogonalLoop=1;jettySize=auto;html=1;exitX=0.5;exitY=1;exitDx=0;exitDy=0;entryX=1;entryY=0.5;entryDx=0;entryDy=0;" parent="1" source="xvVvHs3m2Gexg3es9if6-367" target="xvVvHs3m2Gexg3es9if6-426" edge="1">
          <mxGeometry relative="1" as="geometry" />
        </mxCell>
        <mxCell id="xvVvHs3m2Gexg3es9if6-367" value="รับ" style="shape=parallelogram;perimeter=parallelogramPerimeter;whiteSpace=wrap;html=1;fixedSize=1;" parent="1" vertex="1">
          <mxGeometry x="2560" y="1940" width="120" height="40" as="geometry" />
        </mxCell>
        <mxCell id="xvVvHs3m2Gexg3es9if6-375" style="edgeStyle=orthogonalEdgeStyle;rounded=0;orthogonalLoop=1;jettySize=auto;html=1;exitX=1;exitY=0.5;exitDx=0;exitDy=0;entryX=0.5;entryY=0;entryDx=0;entryDy=0;" parent="1" source="xvVvHs3m2Gexg3es9if6-372" target="xvVvHs3m2Gexg3es9if6-343" edge="1">
          <mxGeometry relative="1" as="geometry" />
        </mxCell>
        <mxCell id="xvVvHs3m2Gexg3es9if6-372" value="" style="ellipse;whiteSpace=wrap;html=1;" parent="1" vertex="1">
          <mxGeometry x="2690" y="1100" width="25.2" height="20" as="geometry" />
        </mxCell>
        <mxCell id="xvVvHs3m2Gexg3es9if6-381" style="edgeStyle=orthogonalEdgeStyle;rounded=0;orthogonalLoop=1;jettySize=auto;html=1;exitX=1;exitY=0.5;exitDx=0;exitDy=0;entryX=0;entryY=0.5;entryDx=0;entryDy=0;" parent="1" source="xvVvHs3m2Gexg3es9if6-379" target="xvVvHs3m2Gexg3es9if6-228" edge="1">
          <mxGeometry relative="1" as="geometry">
            <Array as="points">
              <mxPoint x="1410" y="1020" />
              <mxPoint x="1410" y="850" />
            </Array>
          </mxGeometry>
        </mxCell>
        <mxCell id="xvVvHs3m2Gexg3es9if6-379" value="ไม่มี" style="whiteSpace=wrap;html=1;" parent="1" vertex="1">
          <mxGeometry x="1340" y="1010" width="40" height="20" as="geometry" />
        </mxCell>
        <mxCell id="xvVvHs3m2Gexg3es9if6-384" style="edgeStyle=orthogonalEdgeStyle;rounded=0;orthogonalLoop=1;jettySize=auto;html=1;exitX=0.5;exitY=1;exitDx=0;exitDy=0;entryX=0.5;entryY=0;entryDx=0;entryDy=0;" parent="1" source="xvVvHs3m2Gexg3es9if6-382" target="xvVvHs3m2Gexg3es9if6-236" edge="1">
          <mxGeometry relative="1" as="geometry" />
        </mxCell>
        <mxCell id="xvVvHs3m2Gexg3es9if6-382" value="มี" style="whiteSpace=wrap;html=1;" parent="1" vertex="1">
          <mxGeometry x="1076.12" y="1010" width="40" height="20" as="geometry" />
        </mxCell>
        <mxCell id="xvVvHs3m2Gexg3es9if6-387" style="edgeStyle=orthogonalEdgeStyle;rounded=0;orthogonalLoop=1;jettySize=auto;html=1;exitX=1;exitY=0.5;exitDx=0;exitDy=0;entryX=0;entryY=0.5;entryDx=0;entryDy=0;" parent="1" source="xvVvHs3m2Gexg3es9if6-385" target="xvVvHs3m2Gexg3es9if6-313" edge="1">
          <mxGeometry relative="1" as="geometry">
            <Array as="points">
              <mxPoint x="1950" y="1080" />
              <mxPoint x="1950" y="940" />
            </Array>
          </mxGeometry>
        </mxCell>
        <mxCell id="xvVvHs3m2Gexg3es9if6-385" value="ไม่มี" style="whiteSpace=wrap;html=1;" parent="1" vertex="1">
          <mxGeometry x="1840" y="1070" width="40" height="20" as="geometry" />
        </mxCell>
        <mxCell id="xvVvHs3m2Gexg3es9if6-391" style="edgeStyle=orthogonalEdgeStyle;rounded=0;orthogonalLoop=1;jettySize=auto;html=1;exitX=0.5;exitY=1;exitDx=0;exitDy=0;entryX=0.5;entryY=0;entryDx=0;entryDy=0;" parent="1" source="xvVvHs3m2Gexg3es9if6-388" target="xvVvHs3m2Gexg3es9if6-278" edge="1">
          <mxGeometry relative="1" as="geometry" />
        </mxCell>
        <mxCell id="xvVvHs3m2Gexg3es9if6-388" value="มี" style="whiteSpace=wrap;html=1;" parent="1" vertex="1">
          <mxGeometry x="1587.12" y="1070" width="40" height="20" as="geometry" />
        </mxCell>
        <mxCell id="xvVvHs3m2Gexg3es9if6-395" style="edgeStyle=orthogonalEdgeStyle;rounded=0;orthogonalLoop=1;jettySize=auto;html=1;exitX=1;exitY=0.5;exitDx=0;exitDy=0;entryX=0;entryY=0.5;entryDx=0;entryDy=0;" parent="1" source="xvVvHs3m2Gexg3es9if6-392" target="xvVvHs3m2Gexg3es9if6-372" edge="1">
          <mxGeometry relative="1" as="geometry">
            <Array as="points">
              <mxPoint x="2510" y="1245" />
              <mxPoint x="2510" y="1110" />
            </Array>
          </mxGeometry>
        </mxCell>
        <mxCell id="xvVvHs3m2Gexg3es9if6-392" value="ไม่มี" style="whiteSpace=wrap;html=1;" parent="1" vertex="1">
          <mxGeometry x="2380" y="1235" width="40" height="20" as="geometry" />
        </mxCell>
        <mxCell id="xvVvHs3m2Gexg3es9if6-398" style="edgeStyle=orthogonalEdgeStyle;rounded=0;orthogonalLoop=1;jettySize=auto;html=1;exitX=0.5;exitY=1;exitDx=0;exitDy=0;entryX=0.5;entryY=0;entryDx=0;entryDy=0;" parent="1" source="xvVvHs3m2Gexg3es9if6-396" target="xvVvHs3m2Gexg3es9if6-328" edge="1">
          <mxGeometry relative="1" as="geometry" />
        </mxCell>
        <mxCell id="xvVvHs3m2Gexg3es9if6-396" value="มี" style="whiteSpace=wrap;html=1;" parent="1" vertex="1">
          <mxGeometry x="2117.12" y="1235" width="40" height="20" as="geometry" />
        </mxCell>
        <mxCell id="xvVvHs3m2Gexg3es9if6-416" style="edgeStyle=orthogonalEdgeStyle;rounded=0;orthogonalLoop=1;jettySize=auto;html=1;exitX=0.5;exitY=1;exitDx=0;exitDy=0;entryX=1;entryY=0.5;entryDx=0;entryDy=0;" parent="1" source="xvVvHs3m2Gexg3es9if6-400" target="xvVvHs3m2Gexg3es9if6-133" edge="1">
          <mxGeometry relative="1" as="geometry">
            <Array as="points">
              <mxPoint x="3155" y="1580" />
              <mxPoint x="3370" y="1580" />
              <mxPoint x="3370" y="680" />
            </Array>
          </mxGeometry>
        </mxCell>
        <mxCell id="xvVvHs3m2Gexg3es9if6-400" value="ไม่รับ" style="whiteSpace=wrap;html=1;" parent="1" vertex="1">
          <mxGeometry x="3100" y="1550" width="110" height="50" as="geometry" />
        </mxCell>
        <mxCell id="xvVvHs3m2Gexg3es9if6-403" style="edgeStyle=orthogonalEdgeStyle;rounded=0;orthogonalLoop=1;jettySize=auto;html=1;exitX=0.5;exitY=1;exitDx=0;exitDy=0;entryX=0.5;entryY=0;entryDx=0;entryDy=0;" parent="1" source="xvVvHs3m2Gexg3es9if6-401" target="xvVvHs3m2Gexg3es9if6-357" edge="1">
          <mxGeometry relative="1" as="geometry" />
        </mxCell>
        <mxCell id="xvVvHs3m2Gexg3es9if6-401" value="มี" style="whiteSpace=wrap;html=1;" parent="1" vertex="1">
          <mxGeometry x="2737.12" y="1420" width="40" height="20" as="geometry" />
        </mxCell>
        <mxCell id="xvVvHs3m2Gexg3es9if6-1049" value="" style="edgeStyle=orthogonalEdgeStyle;rounded=0;orthogonalLoop=1;jettySize=auto;html=1;" parent="1" source="xvVvHs3m2Gexg3es9if6-426" target="xvVvHs3m2Gexg3es9if6-1048" edge="1">
          <mxGeometry relative="1" as="geometry" />
        </mxCell>
        <mxCell id="xvVvHs3m2Gexg3es9if6-426" value="" style="ellipse;whiteSpace=wrap;html=1;" parent="1" vertex="1">
          <mxGeometry x="935.01" y="1990" width="50" height="45" as="geometry" />
        </mxCell>
        <mxCell id="xvVvHs3m2Gexg3es9if6-853" style="edgeStyle=orthogonalEdgeStyle;rounded=0;orthogonalLoop=1;jettySize=auto;html=1;exitX=0.5;exitY=1;exitDx=0;exitDy=0;entryX=0.5;entryY=0;entryDx=0;entryDy=0;" parent="1" source="xvVvHs3m2Gexg3es9if6-820" target="xvVvHs3m2Gexg3es9if6-852" edge="1">
          <mxGeometry relative="1" as="geometry" />
        </mxCell>
        <mxCell id="xvVvHs3m2Gexg3es9if6-919" style="edgeStyle=orthogonalEdgeStyle;rounded=0;orthogonalLoop=1;jettySize=auto;html=1;exitX=0;exitY=0.5;exitDx=0;exitDy=0;entryX=0.5;entryY=0;entryDx=0;entryDy=0;" parent="1" source="xvVvHs3m2Gexg3es9if6-820" target="xvVvHs3m2Gexg3es9if6-912" edge="1">
          <mxGeometry relative="1" as="geometry" />
        </mxCell>
        <mxCell id="xvVvHs3m2Gexg3es9if6-820" value="เมล็ดทานตะวันถุงละ13บาท" style="rhombus;whiteSpace=wrap;html=1;" parent="1" vertex="1">
          <mxGeometry x="300" y="710" width="120" height="80" as="geometry" />
        </mxCell>
        <mxCell id="xvVvHs3m2Gexg3es9if6-944" value="" style="edgeStyle=orthogonalEdgeStyle;rounded=0;orthogonalLoop=1;jettySize=auto;html=1;" parent="1" source="xvVvHs3m2Gexg3es9if6-850" target="xvVvHs3m2Gexg3es9if6-943" edge="1">
          <mxGeometry relative="1" as="geometry" />
        </mxCell>
        <mxCell id="xvVvHs3m2Gexg3es9if6-850" value="เลือกสินค้า" style="whiteSpace=wrap;html=1;" parent="1" vertex="1">
          <mxGeometry x="300" y="880" width="120" height="60" as="geometry" />
        </mxCell>
        <mxCell id="xvVvHs3m2Gexg3es9if6-851" value="" style="edgeStyle=orthogonalEdgeStyle;rounded=0;orthogonalLoop=1;jettySize=auto;html=1;" parent="1" source="xvVvHs3m2Gexg3es9if6-852" target="xvVvHs3m2Gexg3es9if6-850" edge="1">
          <mxGeometry relative="1" as="geometry" />
        </mxCell>
        <mxCell id="xvVvHs3m2Gexg3es9if6-852" value="" style="ellipse;whiteSpace=wrap;html=1;" parent="1" vertex="1">
          <mxGeometry x="345" y="820" width="30" height="20" as="geometry" />
        </mxCell>
        <mxCell id="xvVvHs3m2Gexg3es9if6-999" style="edgeStyle=orthogonalEdgeStyle;rounded=0;orthogonalLoop=1;jettySize=auto;html=1;exitX=0.5;exitY=1;exitDx=0;exitDy=0;entryX=0.5;entryY=0;entryDx=0;entryDy=0;" parent="1" source="xvVvHs3m2Gexg3es9if6-912" target="xvVvHs3m2Gexg3es9if6-969" edge="1">
          <mxGeometry relative="1" as="geometry" />
        </mxCell>
        <mxCell id="xvVvHs3m2Gexg3es9if6-912" value="" style="ellipse;whiteSpace=wrap;html=1;" parent="1" vertex="1">
          <mxGeometry x="-110" y="830" width="24.99" height="20" as="geometry" />
        </mxCell>
        <mxCell id="xvVvHs3m2Gexg3es9if6-965" style="edgeStyle=orthogonalEdgeStyle;rounded=0;orthogonalLoop=1;jettySize=auto;html=1;exitX=1;exitY=0.5;exitDx=0;exitDy=0;entryX=0;entryY=0.25;entryDx=0;entryDy=0;" parent="1" source="xvVvHs3m2Gexg3es9if6-943" target="xvVvHs3m2Gexg3es9if6-964" edge="1">
          <mxGeometry relative="1" as="geometry" />
        </mxCell>
        <mxCell id="xvVvHs3m2Gexg3es9if6-967" value="" style="edgeStyle=orthogonalEdgeStyle;rounded=0;orthogonalLoop=1;jettySize=auto;html=1;" parent="1" source="xvVvHs3m2Gexg3es9if6-943" target="xvVvHs3m2Gexg3es9if6-966" edge="1">
          <mxGeometry relative="1" as="geometry" />
        </mxCell>
        <mxCell id="xvVvHs3m2Gexg3es9if6-943" value="มีสินค้าหรือไม่" style="rhombus;whiteSpace=wrap;html=1;" parent="1" vertex="1">
          <mxGeometry x="305" y="990" width="110" height="80" as="geometry" />
        </mxCell>
        <mxCell id="xvVvHs3m2Gexg3es9if6-945" value="" style="edgeStyle=orthogonalEdgeStyle;rounded=0;orthogonalLoop=1;jettySize=auto;html=1;" parent="1" source="xvVvHs3m2Gexg3es9if6-946" target="xvVvHs3m2Gexg3es9if6-948" edge="1">
          <mxGeometry relative="1" as="geometry" />
        </mxCell>
        <mxCell id="xvVvHs3m2Gexg3es9if6-946" value="เลือกจำนวนสินค้า" style="whiteSpace=wrap;html=1;" parent="1" vertex="1">
          <mxGeometry x="451.8699999999999" y="1115" width="100" height="40" as="geometry" />
        </mxCell>
        <mxCell id="xvVvHs3m2Gexg3es9if6-947" value="" style="edgeStyle=orthogonalEdgeStyle;rounded=0;orthogonalLoop=1;jettySize=auto;html=1;" parent="1" source="xvVvHs3m2Gexg3es9if6-948" target="xvVvHs3m2Gexg3es9if6-951" edge="1">
          <mxGeometry relative="1" as="geometry" />
        </mxCell>
        <mxCell id="xvVvHs3m2Gexg3es9if6-948" value="จำนวนที่เลือก" style="shape=parallelogram;perimeter=parallelogramPerimeter;whiteSpace=wrap;html=1;fixedSize=1;" parent="1" vertex="1">
          <mxGeometry x="445" y="1195" width="113.75" height="30" as="geometry" />
        </mxCell>
        <mxCell id="xvVvHs3m2Gexg3es9if6-949" value="" style="edgeStyle=orthogonalEdgeStyle;rounded=0;orthogonalLoop=1;jettySize=auto;html=1;" parent="1" source="xvVvHs3m2Gexg3es9if6-951" target="xvVvHs3m2Gexg3es9if6-953" edge="1">
          <mxGeometry relative="1" as="geometry" />
        </mxCell>
        <mxCell id="xvVvHs3m2Gexg3es9if6-950" value="" style="edgeStyle=orthogonalEdgeStyle;rounded=0;orthogonalLoop=1;jettySize=auto;html=1;" parent="1" source="xvVvHs3m2Gexg3es9if6-951" target="xvVvHs3m2Gexg3es9if6-959" edge="1">
          <mxGeometry relative="1" as="geometry" />
        </mxCell>
        <mxCell id="xvVvHs3m2Gexg3es9if6-951" value="จำนวนที่เลือก&amp;lt;=สินค้าคงเหลือ" style="rhombus;whiteSpace=wrap;html=1;" parent="1" vertex="1">
          <mxGeometry x="440" y="1255" width="123.74" height="80" as="geometry" />
        </mxCell>
        <mxCell id="xvVvHs3m2Gexg3es9if6-952" value="" style="edgeStyle=orthogonalEdgeStyle;rounded=0;orthogonalLoop=1;jettySize=auto;html=1;" parent="1" source="xvVvHs3m2Gexg3es9if6-953" target="xvVvHs3m2Gexg3es9if6-958" edge="1">
          <mxGeometry relative="1" as="geometry" />
        </mxCell>
        <mxCell id="xvVvHs3m2Gexg3es9if6-953" value="คงเหลือไม่พอ" style="whiteSpace=wrap;html=1;" parent="1" vertex="1">
          <mxGeometry x="599.5" y="1345" width="75.01" height="40" as="geometry" />
        </mxCell>
        <mxCell id="xvVvHs3m2Gexg3es9if6-954" value="" style="ellipse;whiteSpace=wrap;html=1;" parent="1" vertex="1">
          <mxGeometry x="493.1199999999999" y="1065" width="20" height="20" as="geometry" />
        </mxCell>
        <mxCell id="xvVvHs3m2Gexg3es9if6-955" value="" style="endArrow=classic;html=1;rounded=0;exitX=0.5;exitY=1;exitDx=0;exitDy=0;" parent="1" source="xvVvHs3m2Gexg3es9if6-954" edge="1">
          <mxGeometry width="50" height="50" relative="1" as="geometry">
            <mxPoint x="501.8699999999999" y="1110" as="sourcePoint" />
            <mxPoint x="503.1199999999999" y="1115" as="targetPoint" />
          </mxGeometry>
        </mxCell>
        <mxCell id="xvVvHs3m2Gexg3es9if6-956" value="" style="edgeStyle=orthogonalEdgeStyle;rounded=0;orthogonalLoop=1;jettySize=auto;html=1;" parent="1" source="xvVvHs3m2Gexg3es9if6-958" target="xvVvHs3m2Gexg3es9if6-961" edge="1">
          <mxGeometry relative="1" as="geometry" />
        </mxCell>
        <mxCell id="xvVvHs3m2Gexg3es9if6-957" value="" style="edgeStyle=orthogonalEdgeStyle;rounded=0;orthogonalLoop=1;jettySize=auto;html=1;" parent="1" source="xvVvHs3m2Gexg3es9if6-958" target="xvVvHs3m2Gexg3es9if6-962" edge="1">
          <mxGeometry relative="1" as="geometry" />
        </mxCell>
        <mxCell id="xvVvHs3m2Gexg3es9if6-958" value="รับต่อมั้ย" style="rhombus;whiteSpace=wrap;html=1;" parent="1" vertex="1">
          <mxGeometry x="597.01" y="1415" width="80" height="60" as="geometry" />
        </mxCell>
        <mxCell id="xvVvHs3m2Gexg3es9if6-1045" style="edgeStyle=orthogonalEdgeStyle;rounded=0;orthogonalLoop=1;jettySize=auto;html=1;exitX=0.5;exitY=1;exitDx=0;exitDy=0;entryX=0;entryY=0.5;entryDx=0;entryDy=0;" parent="1" source="xvVvHs3m2Gexg3es9if6-959" target="xvVvHs3m2Gexg3es9if6-426" edge="1">
          <mxGeometry relative="1" as="geometry" />
        </mxCell>
        <mxCell id="xvVvHs3m2Gexg3es9if6-959" value="รับ" style="shape=parallelogram;perimeter=parallelogramPerimeter;whiteSpace=wrap;html=1;fixedSize=1;" parent="1" vertex="1">
          <mxGeometry x="441.8700000000001" y="1415" width="120" height="40" as="geometry" />
        </mxCell>
        <mxCell id="xvVvHs3m2Gexg3es9if6-960" style="edgeStyle=orthogonalEdgeStyle;rounded=0;orthogonalLoop=1;jettySize=auto;html=1;exitX=0.5;exitY=0;exitDx=0;exitDy=0;entryX=1;entryY=0.5;entryDx=0;entryDy=0;" parent="1" source="xvVvHs3m2Gexg3es9if6-961" target="xvVvHs3m2Gexg3es9if6-954" edge="1">
          <mxGeometry relative="1" as="geometry" />
        </mxCell>
        <mxCell id="xvVvHs3m2Gexg3es9if6-961" value="รับ" style="whiteSpace=wrap;html=1;" parent="1" vertex="1">
          <mxGeometry x="717" y="1430" width="79.99" height="30" as="geometry" />
        </mxCell>
        <mxCell id="xvVvHs3m2Gexg3es9if6-962" value="ไม่รับ" style="whiteSpace=wrap;html=1;" parent="1" vertex="1">
          <mxGeometry x="582" y="1505" width="109.99" height="40" as="geometry" />
        </mxCell>
        <mxCell id="xvVvHs3m2Gexg3es9if6-963" style="edgeStyle=orthogonalEdgeStyle;rounded=0;orthogonalLoop=1;jettySize=auto;html=1;exitX=0.5;exitY=1;exitDx=0;exitDy=0;entryX=0.5;entryY=0;entryDx=0;entryDy=0;" parent="1" source="xvVvHs3m2Gexg3es9if6-964" target="xvVvHs3m2Gexg3es9if6-954" edge="1">
          <mxGeometry relative="1" as="geometry" />
        </mxCell>
        <mxCell id="xvVvHs3m2Gexg3es9if6-964" value="มี" style="whiteSpace=wrap;html=1;" parent="1" vertex="1">
          <mxGeometry x="483.12" y="1025" width="40" height="20" as="geometry" />
        </mxCell>
        <mxCell id="xvVvHs3m2Gexg3es9if6-998" style="edgeStyle=orthogonalEdgeStyle;rounded=0;orthogonalLoop=1;jettySize=auto;html=1;exitX=0.5;exitY=0;exitDx=0;exitDy=0;entryX=1;entryY=0.5;entryDx=0;entryDy=0;" parent="1" source="xvVvHs3m2Gexg3es9if6-966" target="xvVvHs3m2Gexg3es9if6-912" edge="1">
          <mxGeometry relative="1" as="geometry" />
        </mxCell>
        <mxCell id="xvVvHs3m2Gexg3es9if6-966" value="ไม่มี" style="whiteSpace=wrap;html=1;" parent="1" vertex="1">
          <mxGeometry x="150" y="1015" width="80" height="30" as="geometry" />
        </mxCell>
        <mxCell id="xvVvHs3m2Gexg3es9if6-968" style="edgeStyle=orthogonalEdgeStyle;rounded=0;orthogonalLoop=1;jettySize=auto;html=1;exitX=0.5;exitY=1;exitDx=0;exitDy=0;entryX=0.5;entryY=0;entryDx=0;entryDy=0;" parent="1" source="xvVvHs3m2Gexg3es9if6-969" target="xvVvHs3m2Gexg3es9if6-973" edge="1">
          <mxGeometry relative="1" as="geometry" />
        </mxCell>
        <mxCell id="xvVvHs3m2Gexg3es9if6-1037" style="edgeStyle=orthogonalEdgeStyle;rounded=0;orthogonalLoop=1;jettySize=auto;html=1;exitX=0;exitY=0.5;exitDx=0;exitDy=0;entryX=0.5;entryY=0;entryDx=0;entryDy=0;" parent="1" source="xvVvHs3m2Gexg3es9if6-969" target="xvVvHs3m2Gexg3es9if6-1003" edge="1">
          <mxGeometry relative="1" as="geometry">
            <Array as="points">
              <mxPoint x="-157" y="937" />
              <mxPoint x="-597" y="937" />
            </Array>
          </mxGeometry>
        </mxCell>
        <mxCell id="xvVvHs3m2Gexg3es9if6-969" value="ถั่วแปบถุงละ20บาท" style="rhombus;whiteSpace=wrap;html=1;" parent="1" vertex="1">
          <mxGeometry x="-157.51" y="900" width="120" height="80" as="geometry" />
        </mxCell>
        <mxCell id="xvVvHs3m2Gexg3es9if6-970" value="" style="edgeStyle=orthogonalEdgeStyle;rounded=0;orthogonalLoop=1;jettySize=auto;html=1;" parent="1" source="xvVvHs3m2Gexg3es9if6-971" target="xvVvHs3m2Gexg3es9if6-976" edge="1">
          <mxGeometry relative="1" as="geometry" />
        </mxCell>
        <mxCell id="xvVvHs3m2Gexg3es9if6-971" value="เลือกสินค้า" style="whiteSpace=wrap;html=1;" parent="1" vertex="1">
          <mxGeometry x="-157.5" y="1080" width="120" height="60" as="geometry" />
        </mxCell>
        <mxCell id="xvVvHs3m2Gexg3es9if6-972" value="" style="edgeStyle=orthogonalEdgeStyle;rounded=0;orthogonalLoop=1;jettySize=auto;html=1;" parent="1" source="xvVvHs3m2Gexg3es9if6-973" target="xvVvHs3m2Gexg3es9if6-971" edge="1">
          <mxGeometry relative="1" as="geometry" />
        </mxCell>
        <mxCell id="xvVvHs3m2Gexg3es9if6-973" value="" style="ellipse;whiteSpace=wrap;html=1;" parent="1" vertex="1">
          <mxGeometry x="-112.51" y="1015" width="30" height="20" as="geometry" />
        </mxCell>
        <mxCell id="xvVvHs3m2Gexg3es9if6-974" style="edgeStyle=orthogonalEdgeStyle;rounded=0;orthogonalLoop=1;jettySize=auto;html=1;exitX=1;exitY=0.5;exitDx=0;exitDy=0;entryX=0;entryY=0.25;entryDx=0;entryDy=0;" parent="1" source="xvVvHs3m2Gexg3es9if6-976" target="xvVvHs3m2Gexg3es9if6-996" edge="1">
          <mxGeometry relative="1" as="geometry" />
        </mxCell>
        <mxCell id="xvVvHs3m2Gexg3es9if6-975" value="" style="edgeStyle=orthogonalEdgeStyle;rounded=0;orthogonalLoop=1;jettySize=auto;html=1;" parent="1" source="xvVvHs3m2Gexg3es9if6-976" target="xvVvHs3m2Gexg3es9if6-997" edge="1">
          <mxGeometry relative="1" as="geometry" />
        </mxCell>
        <mxCell id="xvVvHs3m2Gexg3es9if6-976" value="มีสินค้าหรือไม่" style="rhombus;whiteSpace=wrap;html=1;" parent="1" vertex="1">
          <mxGeometry x="-152.51" y="1180" width="110" height="80" as="geometry" />
        </mxCell>
        <mxCell id="xvVvHs3m2Gexg3es9if6-977" value="" style="edgeStyle=orthogonalEdgeStyle;rounded=0;orthogonalLoop=1;jettySize=auto;html=1;" parent="1" source="xvVvHs3m2Gexg3es9if6-978" target="xvVvHs3m2Gexg3es9if6-980" edge="1">
          <mxGeometry relative="1" as="geometry" />
        </mxCell>
        <mxCell id="xvVvHs3m2Gexg3es9if6-978" value="เลือกจำนวนสินค้า" style="whiteSpace=wrap;html=1;" parent="1" vertex="1">
          <mxGeometry x="-18.13000000000011" y="1307.5" width="100" height="40" as="geometry" />
        </mxCell>
        <mxCell id="xvVvHs3m2Gexg3es9if6-979" value="" style="edgeStyle=orthogonalEdgeStyle;rounded=0;orthogonalLoop=1;jettySize=auto;html=1;" parent="1" source="xvVvHs3m2Gexg3es9if6-980" target="xvVvHs3m2Gexg3es9if6-983" edge="1">
          <mxGeometry relative="1" as="geometry" />
        </mxCell>
        <mxCell id="xvVvHs3m2Gexg3es9if6-980" value="จำนวนที่เลือก" style="shape=parallelogram;perimeter=parallelogramPerimeter;whiteSpace=wrap;html=1;fixedSize=1;" parent="1" vertex="1">
          <mxGeometry x="-25" y="1387.5" width="113.75" height="30" as="geometry" />
        </mxCell>
        <mxCell id="xvVvHs3m2Gexg3es9if6-981" value="" style="edgeStyle=orthogonalEdgeStyle;rounded=0;orthogonalLoop=1;jettySize=auto;html=1;" parent="1" source="xvVvHs3m2Gexg3es9if6-983" target="xvVvHs3m2Gexg3es9if6-985" edge="1">
          <mxGeometry relative="1" as="geometry" />
        </mxCell>
        <mxCell id="xvVvHs3m2Gexg3es9if6-982" value="" style="edgeStyle=orthogonalEdgeStyle;rounded=0;orthogonalLoop=1;jettySize=auto;html=1;" parent="1" source="xvVvHs3m2Gexg3es9if6-983" target="xvVvHs3m2Gexg3es9if6-991" edge="1">
          <mxGeometry relative="1" as="geometry" />
        </mxCell>
        <mxCell id="xvVvHs3m2Gexg3es9if6-983" value="จำนวนที่เลือก&amp;lt;=สินค้าคงเหลือ" style="rhombus;whiteSpace=wrap;html=1;" parent="1" vertex="1">
          <mxGeometry x="-30" y="1447.5" width="123.74" height="80" as="geometry" />
        </mxCell>
        <mxCell id="xvVvHs3m2Gexg3es9if6-984" value="" style="edgeStyle=orthogonalEdgeStyle;rounded=0;orthogonalLoop=1;jettySize=auto;html=1;" parent="1" source="xvVvHs3m2Gexg3es9if6-985" target="xvVvHs3m2Gexg3es9if6-990" edge="1">
          <mxGeometry relative="1" as="geometry" />
        </mxCell>
        <mxCell id="xvVvHs3m2Gexg3es9if6-985" value="คงเหลือไม่พอ" style="whiteSpace=wrap;html=1;" parent="1" vertex="1">
          <mxGeometry x="129.5" y="1537.5" width="75.01" height="40" as="geometry" />
        </mxCell>
        <mxCell id="xvVvHs3m2Gexg3es9if6-986" value="" style="ellipse;whiteSpace=wrap;html=1;" parent="1" vertex="1">
          <mxGeometry x="23.11999999999989" y="1257.5" width="20" height="20" as="geometry" />
        </mxCell>
        <mxCell id="xvVvHs3m2Gexg3es9if6-987" value="" style="endArrow=classic;html=1;rounded=0;exitX=0.5;exitY=1;exitDx=0;exitDy=0;" parent="1" source="xvVvHs3m2Gexg3es9if6-986" edge="1">
          <mxGeometry width="50" height="50" relative="1" as="geometry">
            <mxPoint x="31.86999999999989" y="1302.5" as="sourcePoint" />
            <mxPoint x="33.11999999999989" y="1307.5" as="targetPoint" />
          </mxGeometry>
        </mxCell>
        <mxCell id="xvVvHs3m2Gexg3es9if6-988" value="" style="edgeStyle=orthogonalEdgeStyle;rounded=0;orthogonalLoop=1;jettySize=auto;html=1;" parent="1" source="xvVvHs3m2Gexg3es9if6-990" target="xvVvHs3m2Gexg3es9if6-993" edge="1">
          <mxGeometry relative="1" as="geometry" />
        </mxCell>
        <mxCell id="xvVvHs3m2Gexg3es9if6-989" value="" style="edgeStyle=orthogonalEdgeStyle;rounded=0;orthogonalLoop=1;jettySize=auto;html=1;" parent="1" source="xvVvHs3m2Gexg3es9if6-990" target="xvVvHs3m2Gexg3es9if6-994" edge="1">
          <mxGeometry relative="1" as="geometry" />
        </mxCell>
        <mxCell id="xvVvHs3m2Gexg3es9if6-990" value="รับต่อมั้ย" style="rhombus;whiteSpace=wrap;html=1;" parent="1" vertex="1">
          <mxGeometry x="127.00999999999999" y="1607.5" width="80" height="60" as="geometry" />
        </mxCell>
        <mxCell id="xvVvHs3m2Gexg3es9if6-1046" style="edgeStyle=orthogonalEdgeStyle;rounded=0;orthogonalLoop=1;jettySize=auto;html=1;exitX=0.5;exitY=1;exitDx=0;exitDy=0;entryX=0;entryY=0.5;entryDx=0;entryDy=0;" parent="1" source="xvVvHs3m2Gexg3es9if6-991" target="xvVvHs3m2Gexg3es9if6-426" edge="1">
          <mxGeometry relative="1" as="geometry" />
        </mxCell>
        <mxCell id="xvVvHs3m2Gexg3es9if6-991" value="รับ" style="shape=parallelogram;perimeter=parallelogramPerimeter;whiteSpace=wrap;html=1;fixedSize=1;" parent="1" vertex="1">
          <mxGeometry x="-28.12999999999988" y="1607.5" width="120" height="40" as="geometry" />
        </mxCell>
        <mxCell id="xvVvHs3m2Gexg3es9if6-992" style="edgeStyle=orthogonalEdgeStyle;rounded=0;orthogonalLoop=1;jettySize=auto;html=1;exitX=0.5;exitY=0;exitDx=0;exitDy=0;entryX=1;entryY=0.5;entryDx=0;entryDy=0;" parent="1" source="xvVvHs3m2Gexg3es9if6-993" target="xvVvHs3m2Gexg3es9if6-986" edge="1">
          <mxGeometry relative="1" as="geometry" />
        </mxCell>
        <mxCell id="xvVvHs3m2Gexg3es9if6-993" value="รับ" style="whiteSpace=wrap;html=1;" parent="1" vertex="1">
          <mxGeometry x="247" y="1622.5" width="79.99" height="30" as="geometry" />
        </mxCell>
        <mxCell id="xvVvHs3m2Gexg3es9if6-1042" style="edgeStyle=orthogonalEdgeStyle;rounded=0;orthogonalLoop=1;jettySize=auto;html=1;exitX=0.5;exitY=1;exitDx=0;exitDy=0;entryX=0;entryY=0.5;entryDx=0;entryDy=0;" parent="1" source="xvVvHs3m2Gexg3es9if6-994" target="xvVvHs3m2Gexg3es9if6-133" edge="1">
          <mxGeometry relative="1" as="geometry">
            <Array as="points">
              <mxPoint x="167" y="2080" />
              <mxPoint x="-930" y="2080" />
              <mxPoint x="-930" y="680" />
            </Array>
          </mxGeometry>
        </mxCell>
        <mxCell id="xvVvHs3m2Gexg3es9if6-994" value="ไม่รับ" style="whiteSpace=wrap;html=1;" parent="1" vertex="1">
          <mxGeometry x="112" y="1697.5" width="109.99" height="40" as="geometry" />
        </mxCell>
        <mxCell id="xvVvHs3m2Gexg3es9if6-995" style="edgeStyle=orthogonalEdgeStyle;rounded=0;orthogonalLoop=1;jettySize=auto;html=1;exitX=0.5;exitY=1;exitDx=0;exitDy=0;entryX=0.5;entryY=0;entryDx=0;entryDy=0;" parent="1" source="xvVvHs3m2Gexg3es9if6-996" target="xvVvHs3m2Gexg3es9if6-986" edge="1">
          <mxGeometry relative="1" as="geometry" />
        </mxCell>
        <mxCell id="xvVvHs3m2Gexg3es9if6-996" value="มี" style="whiteSpace=wrap;html=1;" parent="1" vertex="1">
          <mxGeometry x="13.120000000000005" y="1215" width="40" height="20" as="geometry" />
        </mxCell>
        <mxCell id="xvVvHs3m2Gexg3es9if6-1038" style="edgeStyle=orthogonalEdgeStyle;rounded=0;orthogonalLoop=1;jettySize=auto;html=1;exitX=0;exitY=0.25;exitDx=0;exitDy=0;entryX=1;entryY=0.5;entryDx=0;entryDy=0;" parent="1" source="xvVvHs3m2Gexg3es9if6-997" target="xvVvHs3m2Gexg3es9if6-1003" edge="1">
          <mxGeometry relative="1" as="geometry" />
        </mxCell>
        <mxCell id="xvVvHs3m2Gexg3es9if6-997" value="ไม่มี" style="whiteSpace=wrap;html=1;" parent="1" vertex="1">
          <mxGeometry x="-290" y="1205" width="80" height="30" as="geometry" />
        </mxCell>
        <mxCell id="xvVvHs3m2Gexg3es9if6-1002" style="edgeStyle=orthogonalEdgeStyle;rounded=0;orthogonalLoop=1;jettySize=auto;html=1;exitX=0.5;exitY=1;exitDx=0;exitDy=0;entryX=0.5;entryY=0;entryDx=0;entryDy=0;" parent="1" source="xvVvHs3m2Gexg3es9if6-1003" target="xvVvHs3m2Gexg3es9if6-1008" edge="1">
          <mxGeometry relative="1" as="geometry" />
        </mxCell>
        <mxCell id="xvVvHs3m2Gexg3es9if6-1003" value="" style="ellipse;whiteSpace=wrap;html=1;" parent="1" vertex="1">
          <mxGeometry x="-610" y="957.5" width="24.99" height="20" as="geometry" />
        </mxCell>
        <mxCell id="xvVvHs3m2Gexg3es9if6-1007" style="edgeStyle=orthogonalEdgeStyle;rounded=0;orthogonalLoop=1;jettySize=auto;html=1;exitX=0.5;exitY=1;exitDx=0;exitDy=0;entryX=0.5;entryY=0;entryDx=0;entryDy=0;" parent="1" source="xvVvHs3m2Gexg3es9if6-1008" target="xvVvHs3m2Gexg3es9if6-1012" edge="1">
          <mxGeometry relative="1" as="geometry" />
        </mxCell>
        <mxCell id="xvVvHs3m2Gexg3es9if6-1008" value="จิ้นส้มหมกห่อละ15บาท" style="rhombus;whiteSpace=wrap;html=1;" parent="1" vertex="1">
          <mxGeometry x="-657.51" y="1027.5" width="120" height="80" as="geometry" />
        </mxCell>
        <mxCell id="xvVvHs3m2Gexg3es9if6-1009" value="" style="edgeStyle=orthogonalEdgeStyle;rounded=0;orthogonalLoop=1;jettySize=auto;html=1;" parent="1" source="xvVvHs3m2Gexg3es9if6-1010" target="xvVvHs3m2Gexg3es9if6-1015" edge="1">
          <mxGeometry relative="1" as="geometry" />
        </mxCell>
        <mxCell id="xvVvHs3m2Gexg3es9if6-1010" value="เลือกสินค้า" style="whiteSpace=wrap;html=1;" parent="1" vertex="1">
          <mxGeometry x="-657.5" y="1207.5" width="120" height="60" as="geometry" />
        </mxCell>
        <mxCell id="xvVvHs3m2Gexg3es9if6-1011" value="" style="edgeStyle=orthogonalEdgeStyle;rounded=0;orthogonalLoop=1;jettySize=auto;html=1;" parent="1" source="xvVvHs3m2Gexg3es9if6-1012" target="xvVvHs3m2Gexg3es9if6-1010" edge="1">
          <mxGeometry relative="1" as="geometry" />
        </mxCell>
        <mxCell id="xvVvHs3m2Gexg3es9if6-1012" value="" style="ellipse;whiteSpace=wrap;html=1;" parent="1" vertex="1">
          <mxGeometry x="-612.51" y="1142.5" width="30" height="20" as="geometry" />
        </mxCell>
        <mxCell id="xvVvHs3m2Gexg3es9if6-1013" style="edgeStyle=orthogonalEdgeStyle;rounded=0;orthogonalLoop=1;jettySize=auto;html=1;exitX=1;exitY=0.5;exitDx=0;exitDy=0;entryX=0;entryY=0.25;entryDx=0;entryDy=0;" parent="1" source="xvVvHs3m2Gexg3es9if6-1015" target="xvVvHs3m2Gexg3es9if6-1035" edge="1">
          <mxGeometry relative="1" as="geometry" />
        </mxCell>
        <mxCell id="xvVvHs3m2Gexg3es9if6-1014" value="" style="edgeStyle=orthogonalEdgeStyle;rounded=0;orthogonalLoop=1;jettySize=auto;html=1;" parent="1" source="xvVvHs3m2Gexg3es9if6-1015" target="xvVvHs3m2Gexg3es9if6-1036" edge="1">
          <mxGeometry relative="1" as="geometry" />
        </mxCell>
        <mxCell id="xvVvHs3m2Gexg3es9if6-1015" value="มีสินค้าหรือไม่" style="rhombus;whiteSpace=wrap;html=1;" parent="1" vertex="1">
          <mxGeometry x="-652.51" y="1307.5" width="110" height="80" as="geometry" />
        </mxCell>
        <mxCell id="xvVvHs3m2Gexg3es9if6-1016" value="" style="edgeStyle=orthogonalEdgeStyle;rounded=0;orthogonalLoop=1;jettySize=auto;html=1;" parent="1" source="xvVvHs3m2Gexg3es9if6-1017" target="xvVvHs3m2Gexg3es9if6-1019" edge="1">
          <mxGeometry relative="1" as="geometry" />
        </mxCell>
        <mxCell id="xvVvHs3m2Gexg3es9if6-1017" value="เลือกจำนวนสินค้า" style="whiteSpace=wrap;html=1;" parent="1" vertex="1">
          <mxGeometry x="-518.1300000000001" y="1435" width="100" height="40" as="geometry" />
        </mxCell>
        <mxCell id="xvVvHs3m2Gexg3es9if6-1018" value="" style="edgeStyle=orthogonalEdgeStyle;rounded=0;orthogonalLoop=1;jettySize=auto;html=1;" parent="1" source="xvVvHs3m2Gexg3es9if6-1019" target="xvVvHs3m2Gexg3es9if6-1022" edge="1">
          <mxGeometry relative="1" as="geometry" />
        </mxCell>
        <mxCell id="xvVvHs3m2Gexg3es9if6-1019" value="จำนวนที่เลือก" style="shape=parallelogram;perimeter=parallelogramPerimeter;whiteSpace=wrap;html=1;fixedSize=1;" parent="1" vertex="1">
          <mxGeometry x="-525" y="1515" width="113.75" height="30" as="geometry" />
        </mxCell>
        <mxCell id="xvVvHs3m2Gexg3es9if6-1020" value="" style="edgeStyle=orthogonalEdgeStyle;rounded=0;orthogonalLoop=1;jettySize=auto;html=1;" parent="1" source="xvVvHs3m2Gexg3es9if6-1022" target="xvVvHs3m2Gexg3es9if6-1024" edge="1">
          <mxGeometry relative="1" as="geometry" />
        </mxCell>
        <mxCell id="xvVvHs3m2Gexg3es9if6-1021" value="" style="edgeStyle=orthogonalEdgeStyle;rounded=0;orthogonalLoop=1;jettySize=auto;html=1;" parent="1" source="xvVvHs3m2Gexg3es9if6-1022" target="xvVvHs3m2Gexg3es9if6-1030" edge="1">
          <mxGeometry relative="1" as="geometry" />
        </mxCell>
        <mxCell id="xvVvHs3m2Gexg3es9if6-1022" value="จำนวนที่เลือก&amp;lt;=สินค้าคงเหลือ" style="rhombus;whiteSpace=wrap;html=1;" parent="1" vertex="1">
          <mxGeometry x="-530" y="1575" width="123.74" height="80" as="geometry" />
        </mxCell>
        <mxCell id="xvVvHs3m2Gexg3es9if6-1023" value="" style="edgeStyle=orthogonalEdgeStyle;rounded=0;orthogonalLoop=1;jettySize=auto;html=1;" parent="1" source="xvVvHs3m2Gexg3es9if6-1024" target="xvVvHs3m2Gexg3es9if6-1029" edge="1">
          <mxGeometry relative="1" as="geometry" />
        </mxCell>
        <mxCell id="xvVvHs3m2Gexg3es9if6-1024" value="คงเหลือไม่พอ" style="whiteSpace=wrap;html=1;" parent="1" vertex="1">
          <mxGeometry x="-370.5" y="1665" width="75.01" height="40" as="geometry" />
        </mxCell>
        <mxCell id="xvVvHs3m2Gexg3es9if6-1025" value="" style="ellipse;whiteSpace=wrap;html=1;" parent="1" vertex="1">
          <mxGeometry x="-476.8800000000001" y="1385" width="20" height="20" as="geometry" />
        </mxCell>
        <mxCell id="xvVvHs3m2Gexg3es9if6-1026" value="" style="endArrow=classic;html=1;rounded=0;exitX=0.5;exitY=1;exitDx=0;exitDy=0;" parent="1" source="xvVvHs3m2Gexg3es9if6-1025" edge="1">
          <mxGeometry width="50" height="50" relative="1" as="geometry">
            <mxPoint x="-468.1300000000001" y="1430" as="sourcePoint" />
            <mxPoint x="-466.8800000000001" y="1435" as="targetPoint" />
          </mxGeometry>
        </mxCell>
        <mxCell id="xvVvHs3m2Gexg3es9if6-1027" value="" style="edgeStyle=orthogonalEdgeStyle;rounded=0;orthogonalLoop=1;jettySize=auto;html=1;" parent="1" source="xvVvHs3m2Gexg3es9if6-1029" target="xvVvHs3m2Gexg3es9if6-1032" edge="1">
          <mxGeometry relative="1" as="geometry" />
        </mxCell>
        <mxCell id="xvVvHs3m2Gexg3es9if6-1028" value="" style="edgeStyle=orthogonalEdgeStyle;rounded=0;orthogonalLoop=1;jettySize=auto;html=1;" parent="1" source="xvVvHs3m2Gexg3es9if6-1029" target="xvVvHs3m2Gexg3es9if6-1033" edge="1">
          <mxGeometry relative="1" as="geometry" />
        </mxCell>
        <mxCell id="xvVvHs3m2Gexg3es9if6-1029" value="รับต่อมั้ย" style="rhombus;whiteSpace=wrap;html=1;" parent="1" vertex="1">
          <mxGeometry x="-372.99" y="1735" width="80" height="60" as="geometry" />
        </mxCell>
        <mxCell id="xvVvHs3m2Gexg3es9if6-1047" style="edgeStyle=orthogonalEdgeStyle;rounded=0;orthogonalLoop=1;jettySize=auto;html=1;exitX=0.5;exitY=1;exitDx=0;exitDy=0;entryX=0;entryY=0.5;entryDx=0;entryDy=0;" parent="1" source="xvVvHs3m2Gexg3es9if6-1030" target="xvVvHs3m2Gexg3es9if6-426" edge="1">
          <mxGeometry relative="1" as="geometry" />
        </mxCell>
        <mxCell id="xvVvHs3m2Gexg3es9if6-1030" value="รับ" style="shape=parallelogram;perimeter=parallelogramPerimeter;whiteSpace=wrap;html=1;fixedSize=1;" parent="1" vertex="1">
          <mxGeometry x="-528.1299999999999" y="1735" width="120" height="40" as="geometry" />
        </mxCell>
        <mxCell id="xvVvHs3m2Gexg3es9if6-1031" style="edgeStyle=orthogonalEdgeStyle;rounded=0;orthogonalLoop=1;jettySize=auto;html=1;exitX=0.5;exitY=0;exitDx=0;exitDy=0;entryX=1;entryY=0.5;entryDx=0;entryDy=0;" parent="1" source="xvVvHs3m2Gexg3es9if6-1032" target="xvVvHs3m2Gexg3es9if6-1025" edge="1">
          <mxGeometry relative="1" as="geometry" />
        </mxCell>
        <mxCell id="xvVvHs3m2Gexg3es9if6-1032" value="รับ" style="whiteSpace=wrap;html=1;" parent="1" vertex="1">
          <mxGeometry x="-253" y="1750" width="79.99" height="30" as="geometry" />
        </mxCell>
        <mxCell id="xvVvHs3m2Gexg3es9if6-1043" style="edgeStyle=orthogonalEdgeStyle;rounded=0;orthogonalLoop=1;jettySize=auto;html=1;exitX=0.5;exitY=1;exitDx=0;exitDy=0;entryX=0;entryY=0.5;entryDx=0;entryDy=0;" parent="1" source="xvVvHs3m2Gexg3es9if6-1033" target="xvVvHs3m2Gexg3es9if6-133" edge="1">
          <mxGeometry relative="1" as="geometry">
            <Array as="points">
              <mxPoint x="-333" y="2080" />
              <mxPoint x="-930" y="2080" />
              <mxPoint x="-930" y="680" />
            </Array>
          </mxGeometry>
        </mxCell>
        <mxCell id="xvVvHs3m2Gexg3es9if6-1033" value="ไม่รับ" style="whiteSpace=wrap;html=1;" parent="1" vertex="1">
          <mxGeometry x="-388" y="1825" width="109.99" height="40" as="geometry" />
        </mxCell>
        <mxCell id="xvVvHs3m2Gexg3es9if6-1034" style="edgeStyle=orthogonalEdgeStyle;rounded=0;orthogonalLoop=1;jettySize=auto;html=1;exitX=0.5;exitY=1;exitDx=0;exitDy=0;entryX=0.5;entryY=0;entryDx=0;entryDy=0;" parent="1" source="xvVvHs3m2Gexg3es9if6-1035" target="xvVvHs3m2Gexg3es9if6-1025" edge="1">
          <mxGeometry relative="1" as="geometry" />
        </mxCell>
        <mxCell id="xvVvHs3m2Gexg3es9if6-1035" value="มี" style="whiteSpace=wrap;html=1;" parent="1" vertex="1">
          <mxGeometry x="-486.88" y="1342.5" width="40" height="20" as="geometry" />
        </mxCell>
        <mxCell id="xvVvHs3m2Gexg3es9if6-1041" value="" style="edgeStyle=orthogonalEdgeStyle;rounded=0;orthogonalLoop=1;jettySize=auto;html=1;" parent="1" source="xvVvHs3m2Gexg3es9if6-1036" target="xvVvHs3m2Gexg3es9if6-1040" edge="1">
          <mxGeometry relative="1" as="geometry" />
        </mxCell>
        <mxCell id="xvVvHs3m2Gexg3es9if6-1036" value="ไม่มี" style="whiteSpace=wrap;html=1;" parent="1" vertex="1">
          <mxGeometry x="-790" y="1332.5" width="80" height="30" as="geometry" />
        </mxCell>
        <mxCell id="xvVvHs3m2Gexg3es9if6-1044" style="edgeStyle=orthogonalEdgeStyle;rounded=0;orthogonalLoop=1;jettySize=auto;html=1;exitX=0.5;exitY=1;exitDx=0;exitDy=0;entryX=0;entryY=0.5;entryDx=0;entryDy=0;" parent="1" source="xvVvHs3m2Gexg3es9if6-1040" target="xvVvHs3m2Gexg3es9if6-133" edge="1">
          <mxGeometry relative="1" as="geometry">
            <Array as="points">
              <mxPoint x="-750" y="2080" />
              <mxPoint x="-930" y="2080" />
              <mxPoint x="-930" y="680" />
            </Array>
          </mxGeometry>
        </mxCell>
        <mxCell id="xvVvHs3m2Gexg3es9if6-1040" value="ไม่รับ" style="whiteSpace=wrap;html=1;" parent="1" vertex="1">
          <mxGeometry x="-790" y="1442.5" width="80" height="30" as="geometry" />
        </mxCell>
        <mxCell id="IPWHLdaJgWNZuDEOaq5G-2" value="" style="edgeStyle=orthogonalEdgeStyle;rounded=0;orthogonalLoop=1;jettySize=auto;html=1;" parent="1" source="xvVvHs3m2Gexg3es9if6-1048" target="IPWHLdaJgWNZuDEOaq5G-1" edge="1">
          <mxGeometry relative="1" as="geometry" />
        </mxCell>
        <mxCell id="xvVvHs3m2Gexg3es9if6-1048" value="&lt;font style=&quot;font-size: 19px;&quot;&gt;รวมราคาสินค้าที่เลือก&lt;/font&gt;" style="whiteSpace=wrap;html=1;" parent="1" vertex="1">
          <mxGeometry x="855.01" y="2107.5" width="209.99" height="72.5" as="geometry" />
        </mxCell>
        <mxCell id="IPWHLdaJgWNZuDEOaq5G-1" value="&lt;font style=&quot;font-size: 19px;&quot;&gt;รวมจำนวนสินค้าที่เลือก&lt;/font&gt;" style="whiteSpace=wrap;html=1;" parent="1" vertex="1">
          <mxGeometry x="855.01" y="2260" width="209.99" height="72.5" as="geometry" />
        </mxCell>
      </root>
    </mxGraphModel>
  </diagram>
</mxfile>
